<svg width="24" height="24" viewBox="0 0 24 24" fill="none" xmlns="http://www.w3.org/2000/svg">
<path d="M0.585756 20.586L5.66276 15.509C4.61376 13.928 3.99976 12.035 3.99976 10C3.99976 4.486 8.48576 0 13.9998 0C19.5138 0 23.9998 4.486 23.9998 10C23.9998 15.514 19.5138 20 13.9998 20C11.9648 20 10.0718 19.386 8.49076 18.337L3.41376 23.414C2.63376 24.195 1.36576 24.195 0.585756 23.414C-0.195244 22.633 -0.195244 21.367 0.585756 20.586ZM20.9998 10C20.9998 6.14 17.8598 3 13.9998 3C10.1398 3 6.99976 6.14 6.99976 10C6.99976 13.86 10.1398 17 13.9998 17C17.8598 17 20.9998 13.86 20.9998 10Z" fill="#2667FF"/>
</svg>
