<svg width="16" height="16" viewBox="0 0 16 16" fill="none" xmlns="http://www.w3.org/2000/svg">
<path d="M9.62004 12.5463C9.49337 12.5463 9.3667 12.4996 9.2667 12.3996C9.07337 12.2063 9.07337 11.8863 9.2667 11.6929L12.96 7.99959L9.2667 4.30626C9.07337 4.11292 9.07337 3.79292 9.2667 3.59959C9.46004 3.40626 9.78004 3.40626 9.97337 3.59959L14.02 7.64626C14.2134 7.83959 14.2134 8.15959 14.02 8.35292L9.97337 12.3996C9.87337 12.4996 9.7467 12.5463 9.62004 12.5463Z" fill="#2667FF"/>
<path d="M13.5535 8.5H2.3335C2.06016 8.5 1.8335 8.27333 1.8335 8C1.8335 7.72667 2.06016 7.5 2.3335 7.5H13.5535C13.8268 7.5 14.0535 7.72667 14.0535 8C14.0535 8.27333 13.8268 8.5 13.5535 8.5Z" fill="#2667FF"/>
</svg>
