<svg width="63" height="63" viewBox="0 0 63 63" fill="none" xmlns="http://www.w3.org/2000/svg">
<path d="M49.8756 59.7194C46.2006 59.7194 42.7618 58.1182 40.3993 55.3094C40.3731 55.2569 40.2156 55.1256 40.0844 54.9156C39.7956 54.6268 39.4543 54.1018 39.1656 53.6031C38.0106 51.7393 37.3806 49.5344 37.3806 47.2244C37.3806 43.3919 39.0869 39.8482 42.0531 37.4857C44.2581 35.727 47.0406 34.7556 49.8494 34.7556C52.8944 34.7556 55.7031 35.8057 57.9606 37.7744C58.2756 37.9844 58.6431 38.3782 58.9844 38.7457C61.1106 41.0819 62.2918 44.0743 62.2918 47.1981C62.2918 49.4818 61.6618 51.7131 60.4806 53.6294C59.8506 54.7319 58.9843 55.7294 57.9868 56.5694C55.8606 58.6169 52.9469 59.7194 49.8756 59.7194ZM49.8756 38.7194C47.9331 38.7194 46.0956 39.3756 44.5469 40.6093C42.5256 42.2106 41.3444 44.6519 41.3444 47.2506C41.3444 48.7994 41.7644 50.3218 42.5781 51.6343C42.7881 52.0018 42.9981 52.2907 43.2344 52.5795C43.2869 52.632 43.4444 52.7894 43.5756 52.9994C45.0194 54.7056 47.3819 55.8082 49.8756 55.8082C51.9494 55.8082 53.9444 55.0469 55.4669 53.6819C56.1494 53.1044 56.7269 52.4219 57.1469 51.6869C57.9869 50.3481 58.4069 48.8257 58.4069 47.2769C58.4069 45.1507 57.5931 43.0769 56.1231 41.4756C55.9394 41.2656 55.7293 41.0557 55.5193 40.8982C53.8656 39.4282 51.9494 38.7194 49.8756 38.7194Z" fill="#2667FF"/>
<path d="M53.7863 49.1675H45.9375C44.8612 49.1675 43.9688 48.275 43.9688 47.1987C43.9688 46.1225 44.8612 45.23 45.9375 45.23H53.7863C54.8625 45.23 55.755 46.1225 55.755 47.1987C55.755 48.275 54.8888 49.1675 53.7863 49.1675Z" fill="#2667FF"/>
<path d="M49.875 53.1812C48.7987 53.1812 47.9062 52.2887 47.9062 51.2125V43.3638C47.9062 42.2875 48.7987 41.395 49.875 41.395C50.9513 41.395 51.8438 42.2875 51.8438 43.3638V51.2125C51.8438 52.315 50.9513 53.1812 49.875 53.1812Z" fill="#2667FF"/>
<path d="M31.4996 34.9123C31.1583 34.9123 30.8171 34.8336 30.5021 34.6498L7.3233 21.2361C6.3783 20.6849 6.06333 19.4773 6.61458 18.5323C7.16583 17.5873 8.3733 17.2722 9.29205 17.8235L31.4733 30.6598L53.5233 17.9023C54.4683 17.3511 55.6758 17.6924 56.2008 18.6111C56.7521 19.5561 56.4108 20.7635 55.4921 21.3148L32.4708 34.6498C32.1821 34.8073 31.8408 34.9123 31.4996 34.9123Z" fill="#2667FF"/>
<path d="M31.5 58.695C30.4237 58.695 29.5312 57.8025 29.5312 56.7262V32.9175C29.5312 31.8412 30.4237 30.9487 31.5 30.9487C32.5763 30.9487 33.4688 31.8412 33.4688 32.9175V56.7262C33.4688 57.8025 32.5763 58.695 31.5 58.695Z" fill="#2667FF"/>
<path d="M31.4997 59.7186C29.1897 59.7186 26.8797 59.2198 25.0947 58.196L11.0772 50.4261C7.27093 48.3261 4.27844 43.2598 4.27844 38.9023V24.0447C4.27844 19.6872 7.27093 14.6474 11.0772 12.5211L25.0947 4.75104C28.6647 2.72979 34.2822 2.72979 37.8784 4.75104L51.8959 12.5211C55.7022 14.6211 58.6947 19.6872 58.6947 24.0447V38.9023C58.6947 39.1648 58.6947 39.3747 58.6422 39.6372C58.5109 40.3197 58.0122 40.8972 57.3559 41.1072C56.6997 41.3435 55.9647 41.1861 55.4134 40.7399C52.3947 38.1149 47.7222 38.0098 44.5459 40.5561C42.5247 42.1573 41.3434 44.5985 41.3434 47.1973C41.3434 48.746 41.7634 50.2686 42.5772 51.5811C42.7872 51.9486 42.9972 52.2373 43.2334 52.5261C43.6272 52.9723 43.7847 53.5761 43.6797 54.1536C43.5747 54.7311 43.2072 55.2299 42.6822 55.5186L37.8784 58.1697C36.0934 59.2197 33.8097 59.7186 31.4997 59.7186ZM31.4997 7.21855C29.8722 7.21855 28.2184 7.55981 27.0372 8.21606L13.0197 15.9861C10.4734 17.3774 8.26841 21.1572 8.26841 24.0447V38.9023C8.26841 41.7898 10.4997 45.5698 13.0197 46.9611L27.0372 54.731C29.4259 56.0697 33.5997 56.0697 35.9884 54.731L38.9284 53.1035C37.9572 51.3447 37.4322 49.2972 37.4322 47.1973C37.4322 43.3647 39.1384 39.8211 42.1047 37.4586C45.6747 34.5974 50.7934 33.9935 54.7834 35.6997V23.9923C54.7834 21.1048 52.5522 17.3248 50.0322 15.9336L36.0147 8.16351C34.7809 7.55976 33.1272 7.21855 31.4997 7.21855Z" fill="#2667FF"/>
</svg>
