<svg width="20" height="20" viewBox="0 0 20 20" fill="none" xmlns="http://www.w3.org/2000/svg">
<path fill-rule="evenodd" clip-rule="evenodd" d="M0.801444 5.10337C1.61307 4.13844 3.00458 3.66675 5.04237 3.66675H14.209C16.2468 3.66675 17.6383 4.13844 18.45 5.10337C19.2537 6.05894 19.3302 7.31431 19.2013 8.48486L18.5135 15.8217C18.4125 16.7641 18.176 17.7973 17.3345 18.566C16.4993 19.329 15.2053 19.7084 13.2924 19.7084H5.95903C4.04609 19.7084 2.7521 19.329 1.91689 18.566C1.07545 17.7973 0.838918 16.7641 0.737946 15.8217L0.736975 15.8126L0.0500626 8.48488C-0.0787558 7.31432 -0.00230713 6.05895 0.801444 5.10337ZM1.85371 5.98846C1.42129 6.50255 1.29957 7.27501 1.41736 8.33947L1.41863 8.3509L2.1056 15.6796C2.19731 16.5315 2.38716 17.1332 2.84431 17.5508C3.30847 17.9749 4.18698 18.3334 5.95903 18.3334H13.2924C15.0644 18.3334 15.9429 17.9749 16.4071 17.5508C16.8642 17.1332 17.0541 16.5315 17.1458 15.6796L17.8339 8.33946C17.9517 7.275 17.8301 6.50255 17.3977 5.98846C16.9718 5.48214 16.0854 5.04175 14.209 5.04175H5.04237C3.16598 5.04175 2.27958 5.48214 1.85371 5.98846Z" fill="#AFAFAF"/>
<path fill-rule="evenodd" clip-rule="evenodd" d="M6.68653 2.56701C6.64759 2.86529 6.64649 3.20425 6.64649 3.62083V4.35417C6.64649 4.73386 6.33868 5.04167 5.95899 5.04167C5.57929 5.04167 5.27149 4.73386 5.27149 4.35417L5.27149 3.59701C5.27146 3.20877 5.27144 2.78473 5.32311 2.389C5.37664 1.97898 5.49135 1.54367 5.76009 1.15484C6.32543 0.336867 7.36104 0 8.89232 0H10.359C11.8903 0 12.9259 0.336867 13.4912 1.15484C13.76 1.54367 13.8747 1.97898 13.9282 2.389C13.9799 2.78473 13.9798 3.20878 13.9798 3.59702L13.9798 4.35417C13.9798 4.73386 13.672 5.04167 13.2923 5.04167C12.9126 5.04167 12.6048 4.73386 12.6048 4.35417V3.62083C12.6048 3.20425 12.6037 2.86529 12.5648 2.56701C12.5266 2.27493 12.458 2.07831 12.3601 1.93662C12.1921 1.69355 11.761 1.375 10.359 1.375H8.89232C7.49027 1.375 7.05921 1.69355 6.89122 1.93662C6.79329 2.07831 6.72467 2.27493 6.68653 2.56701Z" fill="#AFAFAF"/>
<path fill-rule="evenodd" clip-rule="evenodd" d="M8.48047 10.5425C8.47976 10.6079 8.47975 10.6825 8.47975 10.7709V11.7151C8.47975 11.9731 8.482 12.163 8.50441 12.324C8.52596 12.4789 8.56018 12.5542 8.58919 12.5951C8.62154 12.6408 8.78276 12.8334 9.62558 12.8334C10.4722 12.8334 10.6315 12.6389 10.6632 12.5937C10.6923 12.5521 10.7265 12.4755 10.7477 12.3189C10.7697 12.156 10.7714 11.9653 10.7714 11.7059V10.7709C10.7714 10.6825 10.7714 10.6079 10.7707 10.5425C10.7052 10.5418 10.6307 10.5418 10.5422 10.5418H8.70891C8.6205 10.5418 8.54591 10.5418 8.48047 10.5425ZM8.6788 9.16675C8.68885 9.16675 8.69888 9.16676 8.70891 9.16676H10.5422C10.5523 9.16676 10.5623 9.16675 10.5724 9.16675C10.7751 9.16671 10.9805 9.16666 11.1481 9.18529C11.319 9.20427 11.6028 9.25503 11.8305 9.4827C12.0581 9.71038 12.1089 9.99419 12.1279 10.1651C12.1465 10.3327 12.1465 10.5381 12.1464 10.7408C12.1464 10.7509 12.1464 10.7609 12.1464 10.7709V11.7162C12.1464 11.9543 12.1464 12.236 12.1103 12.5032C12.0727 12.7805 11.9906 13.0953 11.7894 13.3825C11.3605 13.995 10.6031 14.2084 9.62558 14.2084C8.65339 14.2084 7.89795 13.9977 7.46739 13.3902C7.26494 13.1046 7.18114 12.7909 7.14253 12.5135C7.10479 12.2423 7.10475 11.9566 7.10475 11.7151V10.7709C7.10475 10.7609 7.10474 10.7509 7.10474 10.7408C7.1047 10.5381 7.10465 10.3327 7.12327 10.1651C7.14226 9.99419 7.19302 9.71038 7.42069 9.4827C7.64837 9.25503 7.93218 9.20427 8.10304 9.18529C8.27067 9.16666 8.47609 9.16671 8.6788 9.16675Z" fill="#AFAFAF"/>
<path fill-rule="evenodd" clip-rule="evenodd" d="M19.0276 8.53318C19.2509 8.84025 19.183 9.27023 18.8759 9.49355C16.6611 11.1043 14.1307 12.0624 11.545 12.388C11.1682 12.4354 10.8244 12.1685 10.7769 11.7918C10.7295 11.4151 10.9964 11.0712 11.3732 11.0238C13.7374 10.726 16.047 9.85078 18.0672 8.38154C18.3743 8.15822 18.8042 8.22611 19.0276 8.53318Z" fill="#AFAFAF"/>
<path fill-rule="evenodd" clip-rule="evenodd" d="M0.460072 8.79657C0.67453 8.48324 1.10239 8.40308 1.41572 8.61754C3.38554 9.96578 5.60684 10.7784 7.86891 11.0316C8.24625 11.0739 8.51789 11.414 8.47564 11.7914C8.43339 12.1687 8.09325 12.4404 7.71591 12.3981C5.22964 12.1197 2.79428 11.2273 0.639099 9.75222C0.325767 9.53776 0.245614 9.1099 0.460072 8.79657Z" fill="#AFAFAF"/>
</svg>
