<svg width="14" height="14" viewBox="0 0 14 14" fill="none" xmlns="http://www.w3.org/2000/svg">
<path d="M4.6665 3.354C4.42734 3.354 4.229 3.15567 4.229 2.9165V1.1665C4.229 0.927337 4.42734 0.729004 4.6665 0.729004C4.90567 0.729004 5.104 0.927337 5.104 1.1665V2.9165C5.104 3.15567 4.90567 3.354 4.6665 3.354Z" fill="#2667FF"/>
<path d="M9.3335 3.354C9.09433 3.354 8.896 3.15567 8.896 2.9165V1.1665C8.896 0.927337 9.09433 0.729004 9.3335 0.729004C9.57266 0.729004 9.771 0.927337 9.771 1.1665V2.9165C9.771 3.15567 9.57266 3.354 9.3335 3.354Z" fill="#2667FF"/>
<path d="M4.95833 8.45835C4.8825 8.45835 4.80667 8.44086 4.73667 8.41169C4.66083 8.38253 4.6025 8.34168 4.54417 8.28918C4.43917 8.17835 4.375 8.03252 4.375 7.87502C4.375 7.79919 4.3925 7.72335 4.42167 7.65335C4.45083 7.58335 4.49167 7.51919 4.54417 7.46086C4.6025 7.40836 4.66083 7.36751 4.73667 7.33834C4.94667 7.25084 5.20917 7.29752 5.3725 7.46086C5.4775 7.57169 5.54167 7.72335 5.54167 7.87502C5.54167 7.91002 5.53583 7.95086 5.53 7.99169C5.52417 8.02669 5.5125 8.06169 5.495 8.09669C5.48333 8.13169 5.46583 8.16668 5.4425 8.20168C5.425 8.23085 5.39583 8.26001 5.3725 8.28918C5.26167 8.39418 5.11 8.45835 4.95833 8.45835Z" fill="#2667FF"/>
<path d="M6.99984 8.4585C6.924 8.4585 6.84817 8.44101 6.77817 8.41184C6.70234 8.38268 6.644 8.34183 6.58567 8.28933C6.48067 8.1785 6.4165 8.03267 6.4165 7.87517C6.4165 7.79934 6.434 7.7235 6.46317 7.6535C6.49234 7.5835 6.53317 7.51934 6.58567 7.46101C6.644 7.40851 6.70234 7.36766 6.77817 7.3385C6.98817 7.24516 7.25067 7.29768 7.414 7.46101C7.519 7.57184 7.58317 7.7235 7.58317 7.87517C7.58317 7.91017 7.57734 7.95101 7.5715 7.99184C7.56567 8.02684 7.554 8.06184 7.5365 8.09684C7.52484 8.13184 7.50734 8.16684 7.484 8.20184C7.4665 8.231 7.43734 8.26017 7.414 8.28933C7.30317 8.39433 7.1515 8.4585 6.99984 8.4585Z" fill="#2667FF"/>
<path d="M9.04183 8.4585C8.966 8.4585 8.89016 8.44101 8.82016 8.41184C8.74433 8.38268 8.686 8.34183 8.62766 8.28933C8.60433 8.26017 8.581 8.231 8.55766 8.20184C8.53433 8.16684 8.51683 8.13184 8.50516 8.09684C8.48766 8.06184 8.476 8.02684 8.47016 7.99184C8.46433 7.95101 8.4585 7.91017 8.4585 7.87517C8.4585 7.7235 8.52266 7.57184 8.62766 7.46101C8.686 7.40851 8.74433 7.36766 8.82016 7.3385C9.036 7.24516 9.29266 7.29768 9.456 7.46101C9.561 7.57184 9.62516 7.7235 9.62516 7.87517C9.62516 7.91017 9.61933 7.95101 9.6135 7.99184C9.60766 8.02684 9.59599 8.06184 9.5785 8.09684C9.56683 8.13184 9.54933 8.16684 9.526 8.20184C9.5085 8.231 9.47933 8.26017 9.456 8.28933C9.34516 8.39433 9.1935 8.4585 9.04183 8.4585Z" fill="#2667FF"/>
<path d="M4.95833 10.5002C4.8825 10.5002 4.80667 10.4827 4.73667 10.4535C4.66667 10.4244 4.6025 10.3835 4.54417 10.331C4.43917 10.2202 4.375 10.0685 4.375 9.91686C4.375 9.84102 4.3925 9.76519 4.42167 9.69519C4.45083 9.61935 4.49167 9.5552 4.54417 9.5027C4.76 9.28686 5.15667 9.28686 5.3725 9.5027C5.4775 9.61353 5.54167 9.76519 5.54167 9.91686C5.54167 10.0685 5.4775 10.2202 5.3725 10.331C5.26167 10.436 5.11 10.5002 4.95833 10.5002Z" fill="#2667FF"/>
<path d="M6.99984 10.5002C6.84817 10.5002 6.6965 10.436 6.58567 10.331C6.48067 10.2202 6.4165 10.0685 6.4165 9.91686C6.4165 9.84102 6.434 9.76519 6.46317 9.69519C6.49234 9.61935 6.53317 9.5552 6.58567 9.5027C6.8015 9.28686 7.19817 9.28686 7.414 9.5027C7.4665 9.5552 7.50734 9.61935 7.5365 9.69519C7.56567 9.76519 7.58317 9.84102 7.58317 9.91686C7.58317 10.0685 7.519 10.2202 7.414 10.331C7.30317 10.436 7.1515 10.5002 6.99984 10.5002Z" fill="#2667FF"/>
<path d="M9.04183 10.5002C8.89016 10.5002 8.7385 10.436 8.62766 10.331C8.57516 10.2785 8.53433 10.2144 8.50516 10.1385C8.476 10.0685 8.4585 9.99269 8.4585 9.91686C8.4585 9.84103 8.476 9.76519 8.50516 9.69519C8.53433 9.61936 8.57516 9.5552 8.62766 9.5027C8.76183 9.36853 8.966 9.30435 9.15266 9.34519C9.1935 9.35102 9.2285 9.36269 9.2635 9.38019C9.2985 9.39185 9.3335 9.40937 9.3685 9.4327C9.39766 9.4502 9.42683 9.47937 9.456 9.5027C9.561 9.61353 9.62516 9.76519 9.62516 9.91686C9.62516 10.0685 9.561 10.2202 9.456 10.331C9.34516 10.436 9.1935 10.5002 9.04183 10.5002Z" fill="#2667FF"/>
<path d="M11.9582 5.73975H2.0415C1.80234 5.73975 1.604 5.54141 1.604 5.30225C1.604 5.06308 1.80234 4.86475 2.0415 4.86475H11.9582C12.1973 4.86475 12.3957 5.06308 12.3957 5.30225C12.3957 5.54141 12.1973 5.73975 11.9582 5.73975Z" fill="#2667FF"/>
<path d="M9.33333 13.2707H4.66667C2.5375 13.2707 1.3125 12.0457 1.3125 9.9165V4.95817C1.3125 2.829 2.5375 1.604 4.66667 1.604H9.33333C11.4625 1.604 12.6875 2.829 12.6875 4.95817V9.9165C12.6875 12.0457 11.4625 13.2707 9.33333 13.2707ZM4.66667 2.479C2.99833 2.479 2.1875 3.28984 2.1875 4.95817V9.9165C2.1875 11.5848 2.99833 12.3957 4.66667 12.3957H9.33333C11.0017 12.3957 11.8125 11.5848 11.8125 9.9165V4.95817C11.8125 3.28984 11.0017 2.479 9.33333 2.479H4.66667Z" fill="#2667FF"/>
</svg>
