<svg width="14" height="14" viewBox="0 0 14 14" fill="none" xmlns="http://www.w3.org/2000/svg">
<path d="M6.99999 5.6877C6.76082 5.6877 6.56249 5.48936 6.56249 5.2502V2.2227L6.14249 2.6427C5.97332 2.81186 5.69332 2.81186 5.52415 2.6427C5.35499 2.47353 5.35499 2.19353 5.52415 2.02436L6.69082 0.857697C6.81332 0.735197 7.00582 0.694364 7.16915 0.764364C7.33249 0.82853 7.43749 0.991864 7.43749 1.16686V5.2502C7.43749 5.48936 7.23915 5.6877 6.99999 5.6877Z" fill="#2667FF"/>
<path d="M8.16661 2.77117C8.05578 2.77117 7.94495 2.73033 7.85745 2.64283L6.69078 1.47617C6.52161 1.307 6.52161 1.027 6.69078 0.857832C6.85995 0.688665 7.13995 0.688665 7.30911 0.857832L8.47578 2.0245C8.64495 2.19367 8.64495 2.47367 8.47578 2.64283C8.38828 2.73033 8.27745 2.77117 8.16661 2.77117Z" fill="#2667FF"/>
<path d="M8.02664 10.3541H5.96747C5.35497 10.3541 4.80663 10.0158 4.53247 9.46742L3.84997 8.10242C3.82663 8.04992 3.77413 8.02075 3.72163 8.02075H1.15497C0.915802 8.02075 0.717468 7.82242 0.717468 7.58325C0.717468 7.34409 0.915802 7.14575 1.15497 7.14575H3.72747C4.1183 7.14575 4.4683 7.36159 4.6433 7.71159L5.3258 9.07659C5.4483 9.32742 5.69913 9.47909 5.97914 9.47909H8.0383C8.3183 9.47909 8.56913 9.32742 8.69163 9.07659L9.37414 7.71159C9.54913 7.36159 9.89913 7.14575 10.29 7.14575H12.8333C13.0725 7.14575 13.2708 7.34409 13.2708 7.58325C13.2708 7.82242 13.0725 8.02075 12.8333 8.02075H10.29C10.2316 8.02075 10.185 8.04992 10.1616 8.10242L9.47913 9.46742C9.18747 10.0158 8.63913 10.3541 8.02664 10.3541Z" fill="#2667FF"/>
<path d="M8.75002 13.2709H5.25002C2.08252 13.2709 0.729187 11.9175 0.729187 8.75004V7.00004C0.729187 4.26421 1.74419 2.89337 4.01919 2.56087C4.26419 2.52587 4.48002 2.68921 4.51502 2.92837C4.55002 3.16754 4.38669 3.38921 4.14752 3.42421C2.31585 3.69254 1.60419 4.69587 1.60419 7.00004V8.75004C1.60419 11.4392 2.56085 12.3959 5.25002 12.3959H8.75002C11.4392 12.3959 12.3959 11.4392 12.3959 8.75004V7.00004C12.3959 4.69587 11.6842 3.69254 9.85252 3.42421C9.61335 3.38921 9.45002 3.16754 9.48502 2.92837C9.52002 2.68921 9.74169 2.52587 9.98085 2.56087C12.2559 2.89337 13.2709 4.26421 13.2709 7.00004V8.75004C13.2709 11.9175 11.9175 13.2709 8.75002 13.2709Z" fill="#2667FF"/>
</svg>
