<svg width="18" height="18" viewBox="0 0 18 18" fill="none" xmlns="http://www.w3.org/2000/svg">
<path d="M11.25 17.0625H6.75C2.6775 17.0625 0.9375 15.3225 0.9375 11.25V6.75C0.9375 2.6775 2.6775 0.9375 6.75 0.9375H8.25C8.5575 0.9375 8.8125 1.1925 8.8125 1.5C8.8125 1.8075 8.5575 2.0625 8.25 2.0625H6.75C3.2925 2.0625 2.0625 3.2925 2.0625 6.75V11.25C2.0625 14.7075 3.2925 15.9375 6.75 15.9375H11.25C14.7075 15.9375 15.9375 14.7075 15.9375 11.25V9.75C15.9375 9.4425 16.1925 9.1875 16.5 9.1875C16.8075 9.1875 17.0625 9.4425 17.0625 9.75V11.25C17.0625 15.3225 15.3225 17.0625 11.25 17.0625Z" fill="#2667FF"/>
<path d="M6.37506 13.2672C5.91756 13.2672 5.49756 13.1022 5.19006 12.8022C4.82256 12.4347 4.66506 11.9022 4.74756 11.3397L5.07006 9.08218C5.13006 8.64718 5.41506 8.08468 5.72256 7.77718L11.6326 1.86718C13.1251 0.374678 14.6401 0.374678 16.1326 1.86718C16.9501 2.68468 17.3176 3.51718 17.2426 4.34968C17.1751 5.02468 16.8151 5.68468 16.1326 6.35968L10.2226 12.2697C9.91506 12.5772 9.35256 12.8622 8.91756 12.9222L6.66006 13.2447C6.56256 13.2672 6.46506 13.2672 6.37506 13.2672ZM12.4276 2.66218L6.51756 8.57218C6.37506 8.71468 6.21006 9.04468 6.18006 9.23968L5.85756 11.4972C5.82756 11.7147 5.87256 11.8947 5.98506 12.0072C6.09756 12.1197 6.27756 12.1647 6.49506 12.1347L8.75256 11.8122C8.94756 11.7822 9.28506 11.6172 9.42006 11.4747L15.3301 5.56468C15.8176 5.07718 16.0726 4.64218 16.1101 4.23718C16.1551 3.74968 15.9001 3.23218 15.3301 2.65468C14.1301 1.45468 13.3051 1.79218 12.4276 2.66218Z" fill="#02CF54"/>
<path d="M14.8875 7.3727C14.835 7.3727 14.7825 7.3652 14.7375 7.3502C12.765 6.7952 11.1975 5.2277 10.6425 3.2552C10.56 2.9552 10.7325 2.6477 11.0325 2.5577C11.3325 2.4752 11.64 2.6477 11.7225 2.9477C12.1725 4.5452 13.44 5.8127 15.0375 6.2627C15.3375 6.3452 15.51 6.6602 15.4275 6.9602C15.36 7.2152 15.135 7.3727 14.8875 7.3727Z" fill="#02CF54"/>
</svg>
