<svg width="12" height="12" viewBox="0 0 12 12" fill="none" xmlns="http://www.w3.org/2000/svg">
<path d="M5.4649 11.3748C5.2249 11.3748 4.98492 11.3148 4.76492 11.1948C4.31992 10.9448 4.0549 10.4998 4.0549 9.99477V7.31978C4.0549 7.06478 3.88989 6.68977 3.73489 6.49477L1.8349 4.49977C1.5199 4.18477 1.2749 3.63477 1.2749 3.22977V2.06978C1.2749 1.26478 1.88491 0.634766 2.65991 0.634766H9.3299C10.0949 0.634766 10.7149 1.25478 10.7149 2.01978V3.12978C10.7149 3.65478 10.3999 4.25976 10.0999 4.55476C9.95491 4.69976 9.71492 4.69976 9.56992 4.55476C9.42492 4.40976 9.42492 4.16977 9.56992 4.02477C9.75492 3.83977 9.9649 3.42478 9.9649 3.12978V2.01978C9.9649 1.66978 9.6799 1.38477 9.3299 1.38477H2.65991C2.30491 1.38477 2.0249 1.68478 2.0249 2.06978V3.22977C2.0249 3.41477 2.1749 3.77978 2.3699 3.97478L4.29492 5.99977C4.54992 6.31477 4.7999 6.84478 4.7999 7.31978V9.99477C4.7999 10.3248 5.02491 10.4848 5.12491 10.5398C5.33991 10.6598 5.59492 10.6548 5.79492 10.5348L6.4949 10.0848C6.6399 9.99978 6.77991 9.72476 6.77991 9.53976C6.77991 9.33476 6.94991 9.16476 7.15491 9.16476C7.35991 9.16476 7.52991 9.33476 7.52991 9.53976C7.52991 9.98976 7.2499 10.5048 6.8949 10.7198L6.19992 11.1698C5.97492 11.3048 5.7199 11.3748 5.4649 11.3748Z" fill="#2667FF"/>
<path d="M8.03506 8.63506C6.94506 8.63506 6.06006 7.75006 6.06006 6.66006C6.06006 5.57006 6.94506 4.68506 8.03506 4.68506C9.12506 4.68506 10.0101 5.57006 10.0101 6.66006C10.0101 7.75006 9.12506 8.63506 8.03506 8.63506ZM8.03506 5.43506C7.36006 5.43506 6.81006 5.98506 6.81006 6.66006C6.81006 7.33506 7.36006 7.88506 8.03506 7.88506C8.71006 7.88506 9.26007 7.33506 9.26007 6.66006C9.26007 5.98506 8.71006 5.43506 8.03506 5.43506Z" fill="#2667FF"/>
<path d="M9.93501 8.93478C9.84001 8.93478 9.74503 8.89978 9.67003 8.82478L9.17003 8.32478C9.02503 8.17978 9.02503 7.93979 9.17003 7.79479C9.31503 7.64979 9.55503 7.64979 9.70003 7.79479L10.2 8.29479C10.345 8.43979 10.345 8.67978 10.2 8.82478C10.13 8.89478 10.03 8.93478 9.93501 8.93478Z" fill="#2667FF"/>
</svg>
