<svg width="46" height="46" viewBox="0 0 46 46" fill="none" xmlns="http://www.w3.org/2000/svg">
<rect width="46" height="46" rx="8" fill="#2667FF"/>
<path d="M18.3788 14.4796C17.4488 15.4268 17.4488 16.9595 18.396 17.9066L20.4625 19.9732C22.4085 21.9191 22.4085 25.0878 20.4625 27.0338L16.6739 23.2452C15.7009 22.2722 15.2101 20.9892 15.2101 19.7148C15.2101 18.4405 15.7009 17.1575 16.6739 16.1845L18.3529 14.5055C18.3615 14.4969 18.3702 14.4882 18.3788 14.4796Z" fill="#2667FF" stroke="white" stroke-width="2" stroke-miterlimit="10"/>
<path d="M20.0319 19.5417L18.3959 17.9057C17.4488 16.9585 17.4402 15.4345 18.3787 14.4787C19.3087 13.566 20.7897 13.5832 21.711 14.5045C22.176 14.9695 22.4085 15.5809 22.4085 16.1836C22.4085 16.7863 22.176 17.3977 21.711 17.8627L21.3235 18.2501" fill="#2667FF"/>
<path d="M20.0319 19.5417L18.3959 17.9057C17.4488 16.9585 17.4402 15.4345 18.3787 14.4787C19.3087 13.566 20.7897 13.5832 21.711 14.5045C22.176 14.9695 22.4085 15.5809 22.4085 16.1836C22.4085 16.7863 22.176 17.3977 21.711 17.8627L21.3235 18.2501" stroke="white" stroke-width="2" stroke-miterlimit="10"/>
<path d="M28.1515 31.3988C29.0814 30.4516 29.0814 28.919 28.1343 27.9718L26.0677 25.9053C24.1217 23.9593 24.1217 20.7906 26.0677 18.8446L29.8564 22.6333C30.8294 23.6063 31.3202 24.8892 31.3202 26.1636C31.3202 27.4379 30.8294 28.7209 29.8564 29.6939L28.1773 31.373C28.1601 31.3902 28.1515 31.3988 28.1515 31.3988Z" fill="#2667FF" stroke="white" stroke-width="2" stroke-miterlimit="10"/>
<path d="M26.4892 26.3443L28.1252 27.9803C29.0724 28.9274 29.081 30.4515 28.1424 31.4073C27.2125 32.32 25.7315 32.3028 24.8102 31.3814C24.3452 30.9165 24.1127 30.3051 24.1127 29.7024C24.1127 29.0997 24.3452 28.4883 24.8102 28.0233L25.2062 27.6273" fill="#2667FF"/>
<path d="M26.4892 26.3443L28.1252 27.9803C29.0724 28.9274 29.081 30.4515 28.1424 31.4073C27.2125 32.32 25.7315 32.3028 24.8102 31.3814C24.3452 30.9165 24.1127 30.3051 24.1127 29.7024C24.1127 29.0997 24.3452 28.4883 24.8102 28.0233L25.2062 27.6273" stroke="white" stroke-width="2" stroke-miterlimit="10"/>
</svg>
