<svg width="18" height="15" viewBox="0 0 18 15" fill="none" xmlns="http://www.w3.org/2000/svg">
<path d="M5.34375 0C5.70797 5.99861e-05 6.06707 0.090881 6.3877 0.263672C6.70623 0.435388 6.97781 0.682822 7.17773 0.984375L7.8252 1.94434L7.8291 1.9502C7.92106 2.08982 8.04678 2.2046 8.19434 2.2832C8.34178 2.36167 8.50682 2.40196 8.67383 2.40039H15C15.5835 2.40039 16.1431 2.63234 16.5557 3.04492C16.9681 3.45748 17.2002 4.0172 17.2002 4.60059V12.6006C17.2001 13.1838 16.968 13.7428 16.5557 14.1553C16.1431 14.5679 15.5835 14.7998 15 14.7998H2.2002C1.61672 14.7998 1.05711 14.5679 0.644531 14.1553C0.23217 13.7428 0.000103319 13.1838 0 12.6006V2.2002C1.22422e-07 1.61672 0.231951 1.05711 0.644531 0.644531C1.0571 0.232008 1.61676 0 2.2002 0H5.34375ZM2.2002 1.2002C1.93502 1.2002 1.68069 1.30568 1.49316 1.49316C1.30563 1.6807 1.2002 1.93498 1.2002 2.2002V12.6006C1.2003 12.8657 1.30572 13.1202 1.49316 13.3076C1.68067 13.495 1.93511 13.6006 2.2002 13.6006H15C15.2651 13.6006 15.5195 13.495 15.707 13.3076C15.8945 13.1202 15.9999 12.8657 16 12.6006V4.60059C16 4.33546 15.8945 4.08107 15.707 3.89355C15.5195 3.70602 15.2652 3.60059 15 3.60059H8.67969C8.31417 3.60314 7.95361 3.51448 7.63086 3.34277C7.30609 3.16982 7.02853 2.91766 6.82617 2.61035L6.18262 1.65527L6.17871 1.65039C6.08768 1.51217 5.96404 1.39787 5.81836 1.31934C5.67268 1.24087 5.50922 1.20022 5.34375 1.2002H2.2002ZM6.53125 6.22559C6.73826 5.96683 7.11624 5.92483 7.375 6.13184C7.63359 6.33887 7.67571 6.71689 7.46875 6.97559L6.16895 8.60059L7.46875 10.2256C7.67555 10.4843 7.63368 10.8624 7.375 11.0693C7.11632 11.2761 6.73824 11.2341 6.53125 10.9756L4.93164 8.97559C4.75635 8.75647 4.75638 8.44471 4.93164 8.22559L6.53125 6.22559ZM9.8252 6.13184C10.084 5.92483 10.4619 5.96683 10.6689 6.22559L12.2686 8.22559C12.4438 8.44471 12.4438 8.7565 12.2686 8.97559L10.6689 10.9756C10.462 11.2341 10.0839 11.276 9.8252 11.0693C9.56649 10.8624 9.52458 10.4843 9.73145 10.2256L11.0312 8.60059L9.73145 6.97559C9.52446 6.71686 9.56651 6.33886 9.8252 6.13184Z" fill="#22C55E"/>
</svg>
