<svg width="15" height="15" viewBox="0 0 15 15" fill="none" xmlns="http://www.w3.org/2000/svg">
<path d="M0.5 3.5C0.5 1.84315 1.84315 0.5 3.5 0.5H7.5H9.05736C9.85301 0.5 10.6161 0.816071 11.1787 1.37868L13.6213 3.82132C14.1839 4.38393 14.5 5.14699 14.5 5.94264V7.5V11.5C14.5 13.1569 13.1569 14.5 11.5 14.5H3.5C1.84315 14.5 0.5 13.1569 0.5 11.5V3.5Z" stroke="white"/>
<path d="M3.29999 10.2C3.29999 9.09538 4.19542 8.19995 5.29999 8.19995H9.69999C10.8046 8.19995 11.7 9.09538 11.7 10.2V14.5H3.29999V10.2Z" stroke="white"/>
<path d="M4.70001 0.5V3C4.70001 3.55228 5.14773 4 5.70001 4H9.30001C9.8523 4 10.3 3.55228 10.3 3V0.5" stroke="white"/>
</svg>
