<svg id="Layer_1" data-name="Layer 1" xmlns="http://www.w3.org/2000/svg" xmlns:xlink="http://www.w3.org/1999/xlink" viewBox="0 0 1889.24 1804.71"><defs><style>.cls-1{fill:none;}.cls-2{clip-path:url(#clip-path);}.cls-3{fill:#2a9d8f;}.cls-4{clip-path:url(#clip-path-2);}.cls-5{clip-path:url(#clip-path-3);}.cls-6{fill:#3dccc7;}.cls-7{fill:#3bc6c0;}.cls-8{clip-path:url(#clip-path-5);}.cls-9{fill:#2a9e90;}.cls-10{fill:#2b9f92;}.cls-11{fill:#2ba093;}.cls-12{fill:#2ca194;}.cls-13{fill:#2ca295;}.cls-14{fill:#2da397;}.cls-15{fill:#2da498;}.cls-16{fill:#2da599;}.cls-17{fill:#2ea69a;}.cls-18{fill:#2ea79b;}.cls-19{fill:#2fa89d;}.cls-20{fill:#2faa9e;}.cls-21{fill:#2fab9f;}.cls-22{fill:#30aca0;}.cls-23{fill:#30ada1;}.cls-24{fill:#31ada3;}.cls-25{fill:#31aea4;}.cls-26{fill:#31afa5;}.cls-27{fill:#32b0a6;}.cls-28{fill:#32b1a7;}.cls-29{fill:#33b2a8;}.cls-30{fill:#33b3aa;}.cls-31{fill:#33b4ab;}.cls-32{fill:#34b5ac;}.cls-33{fill:#34b6ad;}.cls-34{fill:#35b7ae;}.cls-35{fill:#35b8af;}.cls-36{fill:#35b9b0;}.cls-37{fill:#36bab1;}.cls-38{fill:#36bbb2;}.cls-39{fill:#36bbb3;}.cls-40{fill:#37bcb4;}.cls-41{fill:#37bdb5;}.cls-42{fill:#37beb6;}.cls-43{fill:#38bfb7;}.cls-44{fill:#38c0b8;}.cls-45{fill:#38c0b9;}.cls-46{fill:#39c1ba;}.cls-47{fill:#39c2bb;}.cls-48{fill:#39c3bc;}.cls-49{fill:#3ac4bd;}.cls-50{fill:#3ac4be;}.cls-51{fill:#3ac5bf;}.cls-52{fill:#3ac6c0;}.cls-53{fill:#3bc7c1;}.cls-54{fill:#3bc8c2;}.cls-55{fill:#3cc8c3;}.cls-56{fill:#3cc9c4;}.cls-57{fill:#3ccac4;}.cls-58{fill:#3ccac5;}.cls-59{fill:#3dcbc6;}.cls-60{fill:#3ccbc5;}.cls-61{fill:#3ac3bd;}.cls-62{fill:#38bfb8;}.cls-63{fill:#36bab2;}.cls-64{fill:#35b9b1;}.cls-65{fill:#34b7ae;}.cls-66{fill:#33b2a9;}.cls-67{fill:#32b2a8;}.cls-68{fill:#32b1a6;}.cls-69{fill:#32b0a5;}.cls-70{fill:#231f20;}.cls-71{fill:#017bb4;}.cls-72{fill:#017ab4;}.cls-73{fill:#0179b3;}.cls-74{fill:#0178b2;}.cls-75{fill:#0177b2;}.cls-76{fill:#0176b1;}.cls-77{fill:#0175b0;}.cls-78{fill:#0174b0;}.cls-79{fill:#0173af;}.cls-80{fill:#0172ae;}.cls-81{fill:#0171ad;}.cls-82{fill:#0170ad;}.cls-83{fill:#016fac;}.cls-84{fill:#016eab;}.cls-85{fill:#016daa;}.cls-86{fill:#016caa;}.cls-87{fill:#016aa9;}.cls-88{fill:#0169a8;}.cls-89{fill:#0168a7;}.cls-90{fill:#0167a6;}.cls-91{fill:#0166a6;}.cls-92{fill:#0165a5;}.cls-93{fill:#0164a4;}.cls-94{fill:#0163a3;}.cls-95{fill:#0161a3;}.cls-96{fill:#0160a2;}.cls-97{fill:#015fa1;}.cls-98{fill:#015ea0;}.cls-99{fill:#015d9f;}.cls-100{fill:#015c9f;}.cls-101{fill:#015a9e;}.cls-102{fill:#01599d;}.cls-103{fill:#01589c;}.cls-104{fill:#01579b;}.cls-105{fill:#01569a;}.cls-106{fill:#01549a;}.cls-107{fill:#025399;}.cls-108{fill:#025298;}.cls-109{fill:#025197;}.cls-110{fill:#025096;}.cls-111{fill:#024e95;}.cls-112{fill:#024d94;}.cls-113{fill:#024c94;}.cls-114{fill:#024b93;}.cls-115{fill:#024992;}.cls-116{fill:#024891;}.cls-117{fill:#024790;}.cls-118{fill:#02468f;}.cls-119{fill:#02448e;}.cls-120{fill:#02438e;}.cls-121{fill:#02428d;}.cls-122{fill:#02418c;}.cls-123{fill:#023f8b;}.cls-124{fill:#023e8a;}.cls-125{fill:#008dc1;}.cls-126{fill:#008dc0;}.cls-127{fill:#008cc0;}.cls-128{fill:#008bbf;}.cls-129{fill:#008abf;}.cls-130{fill:#0089be;}.cls-131{fill:#0088be;}.cls-132{fill:#0088bd;}.cls-133{fill:#0087bc;}.cls-134{fill:#0086bc;}.cls-135{fill:#0085bb;}.cls-136{fill:#0084ba;}.cls-137{fill:#0083ba;}.cls-138{fill:#0082b9;}.cls-139{fill:#0081b9;}.cls-140{fill:#0080b8;}.cls-141{fill:#017fb7;}.cls-142{fill:#017eb7;}.cls-143{fill:#017db6;}.cls-144{fill:#017cb5;}.cls-145{fill:#02408b;}.cls-146{fill:#02438d;}.cls-147{fill:#024a93;}.cls-148{fill:#024d95;}.cls-149{fill:#024f96;}.cls-150{fill:#025097;}.cls-151{fill:#01559a;}.cls-152{fill:#01569b;}.cls-153{fill:#01579c;}.cls-154{fill:#015c9e;}.cls-155{fill:#0160a1;}.cls-156{fill:#0161a2;}.cls-157{fill:#0162a3;}.cls-158{fill:#0167a7;}.cls-159{fill:#016aa8;}.cls-160{fill:#016ba9;}.cls-161{fill:#016dab;}.cls-162{fill:#0177b1;}.cls-163{fill:#017ab3;}.cls-164{fill:#017eb6;}.cls-165{fill:#0180b8;}.cls-166{fill:#0081b8;}.cls-167{fill:#0087bd;}.cls-168{fill:#008abe;}.cls-169{fill:#008ec1;}.cls-170{fill:#008fc2;}.cls-171{fill:#0090c3;}.cls-172{fill:#0091c4;}.cls-173{fill:#0092c4;}.cls-174{fill:#0093c5;}.cls-175{fill:#0094c6;}.cls-176{fill:#0095c6;}.cls-177{fill:#0095c7;}.cls-178{fill:#0096c7;}.cls-179{fill:#0094c5;}.cls-180{fill:#0092c5;}.cls-181{fill:#008ec2;}.cls-182{clip-path:url(#clip-path-11);}.cls-183{fill:#0178b3;}.cls-184{fill:#0084bb;}.cls-185{fill:#0085bc;}.cls-186{fill:#0091c3;}.cls-187{fill:#22aaa1;}.cls-188{fill:#343434;}</style><clipPath id="clip-path"><path class="cls-1" d="M452.11,952.59v49.22H403.5q-19.51,0-34.81,14.1a36.54,36.54,0,0,0-10.21,14.4,44.31,44.31,0,0,0-3.3,16.21v102q0,19.8,13.51,31.51,15.3,14.1,34.81,14.1H595.85q19.8,0,35.11-14.1,13.5-13.51,13.5-31.51V546.41h49.22v602.14a87.67,87.67,0,0,1-7.95,37.06,94.8,94.8,0,0,1-21.46,29.86,102.94,102.94,0,0,1-31.36,20,96.45,96.45,0,0,1-37.06,7.35H403.5q-15.92,0-24.76-2.85t-12.45-4.05q-27.92-12.3-44.12-35T306,1148.55v-102a91.88,91.88,0,0,1,7.65-35.86,85.42,85.42,0,0,1,21.16-30.46q4.2-3.6,8-6.45t6.75-5.25a94.47,94.47,0,0,1,16.81-8.41,100.59,100.59,0,0,1,37.21-7.5Z"/></clipPath><clipPath id="clip-path-2"><path class="cls-1" d="M733.52,546.44H798a96.49,96.49,0,0,1,37.06,7.35,104.17,104.17,0,0,1,31.66,20.26,93.31,93.31,0,0,1,21.6,30.31A88.54,88.54,0,0,1,896.17,641V844.73a90.9,90.9,0,0,1-1.5,17.25q-1.51,7.65-2.41,10.5a68.57,68.57,0,0,1-3.9,8.86,85,85,0,0,1-20.7,30,104.72,104.72,0,0,1-31.51,20.11A98.15,98.15,0,0,1,798,939H733.91V890.34H798q21,0,34.81-13.36a43.23,43.23,0,0,0,13.8-32.25V641a41.68,41.68,0,0,0-3.6-17.11,35.28,35.28,0,0,0-9.9-14.4A49.56,49.56,0,0,0,798,595.65H733.52Z"/></clipPath><clipPath id="clip-path-3"><path class="cls-1" d="M1463.91,988.33h0Z"/></clipPath><clipPath id="clip-path-5"><path class="cls-1" d="M1562.34,644.14V943a89.5,89.5,0,0,1-8,36.76,92.71,92.71,0,0,1-21.45,30.46,100.81,100.81,0,0,1-31.36,19.8,99.6,99.6,0,0,1-37.66,7.21v0h-293a100,100,0,0,1-38-7.36,91.15,91.15,0,0,1-30.76-19.95l-4.5-4.5-5.1,4.8a104.83,104.83,0,0,1-31.21,20.55q-16.81,7.07-37.51,7.06v-.23a100.83,100.83,0,0,1-33.79-7.14,99.55,99.55,0,0,1-31.81-19.8,93.1,93.1,0,0,1-29.1-67.22v-397h49.21v397a56.8,56.8,0,0,0,.6,8.85,35.7,35.7,0,0,0,2.7,8.55,50.58,50.58,0,0,0,42.19,27.81v0a49.55,49.55,0,0,0,35.11-13.8,37.48,37.48,0,0,0,10.35-14.7,46.23,46.23,0,0,0,3.45-17.11V739.52a86.46,86.46,0,0,1,8.4-36.91,98.2,98.2,0,0,1,89.73-57.31h146.74a94,94,0,0,1,37.21,8.1,109.76,109.76,0,0,1,32.41,20.1A82.33,82.33,0,0,1,1408,703.21a55.75,55.75,0,0,1,3.9,8.71,104.22,104.22,0,0,1,2.4,10.65c3,16.73,5.42,28.28-3.66,38.91L1227.09,943.24h-67.7l207.16-203.72c6.17-6-4.6-22.9-13.8-31.51a40.07,40.07,0,0,0-15.9-10.2,54.45,54.45,0,0,0-19.21-3.6H1170.9a52,52,0,0,0-18.91,3.6q-14.4,6.3-22.35,17.71t-8,24V943.58q0,17.71,14.11,30.91a71.5,71.5,0,0,0,15.9,10.2,56.09,56.09,0,0,0,19.21,3.6h293.78v0h0a49.77,49.77,0,0,0,34.64-13.79,40.76,40.76,0,0,0,10.5-14.71,44.12,44.12,0,0,0,3.3-16.8V644.14Z"/></clipPath><clipPath id="clip-path-11"><path class="cls-1" d="M1562.08,552v49.42H1321.34V552h147.33a54.22,54.22,0,0,0,30.95,8.18,54.87,54.87,0,0,0,26.79-8.18Z"/></clipPath></defs><g class="cls-2"><polygon class="cls-3" points="693.68 1212.43 620.47 1242.77 305.97 1242.77 305.97 684.56 639.24 546.41 693.68 546.41 693.68 1212.43"/></g><g class="cls-4"><polygon class="cls-3" points="896.16 908.76 823.34 938.95 733.52 938.95 733.52 546.44 896.16 546.44 896.16 908.76"/></g><g class="cls-5"><rect class="cls-6" x="1463.91" y="988.32" width="0.77" height="0.01"/></g><g class="cls-5"><rect class="cls-7" x="1463.91" y="988.32" width="0.77" height="0.01"/></g><g class="cls-8"><polygon class="cls-3" points="1562.34 1007.15 1488.37 1037.81 1393.42 1037.81 1189.72 546.41 1562.34 546.41 1562.34 1007.15"/><polygon class="cls-3" points="1388.55 1037.81 1184.85 546.41 1189.72 546.41 1393.42 1037.81 1388.55 1037.81"/><polygon class="cls-9" points="1383.66 1037.81 1179.96 546.41 1184.85 546.41 1388.55 1037.81 1383.66 1037.81"/><polygon class="cls-10" points="1378.78 1037.81 1175.08 546.41 1179.96 546.41 1383.66 1037.81 1378.78 1037.81"/><polygon class="cls-11" points="1373.9 1037.81 1170.2 546.41 1175.08 546.41 1378.78 1037.81 1373.9 1037.81"/><polygon class="cls-12" points="1369.02 1037.81 1165.32 546.41 1170.2 546.41 1373.9 1037.81 1369.02 1037.81"/><polygon class="cls-13" points="1364.14 1037.81 1160.44 546.41 1165.32 546.41 1369.02 1037.81 1364.14 1037.81"/><polygon class="cls-14" points="1359.26 1037.81 1155.56 546.41 1160.44 546.41 1364.14 1037.81 1359.26 1037.81"/><polygon class="cls-15" points="1354.38 1037.81 1150.68 546.41 1155.56 546.41 1359.26 1037.81 1354.38 1037.81"/><polygon class="cls-16" points="1349.5 1037.81 1145.8 546.41 1150.68 546.41 1354.38 1037.81 1349.5 1037.81"/><polygon class="cls-17" points="1344.62 1037.81 1140.92 546.41 1145.8 546.41 1349.5 1037.81 1344.62 1037.81"/><polygon class="cls-18" points="1339.74 1037.81 1136.04 546.41 1140.92 546.41 1344.62 1037.81 1339.74 1037.81"/><polygon class="cls-19" points="1334.86 1037.81 1131.16 546.41 1136.04 546.41 1339.74 1037.81 1334.86 1037.81"/><polygon class="cls-20" points="1329.98 1037.81 1126.28 546.41 1131.16 546.41 1334.86 1037.81 1329.98 1037.81"/><polygon class="cls-21" points="1325.1 1037.81 1121.4 546.41 1126.28 546.41 1329.98 1037.81 1325.1 1037.81"/><polygon class="cls-22" points="1320.22 1037.81 1116.52 546.41 1121.4 546.41 1325.1 1037.81 1320.22 1037.81"/><polygon class="cls-23" points="1315.34 1037.81 1111.64 546.41 1116.52 546.41 1320.22 1037.81 1315.34 1037.81"/><polygon class="cls-24" points="1310.46 1037.81 1106.76 546.41 1111.64 546.41 1315.34 1037.81 1310.46 1037.81"/><polygon class="cls-25" points="1305.58 1037.81 1101.88 546.41 1106.76 546.41 1310.46 1037.81 1305.58 1037.81"/><polygon class="cls-26" points="1300.7 1037.81 1097 546.41 1101.88 546.41 1305.58 1037.81 1300.7 1037.81"/><polygon class="cls-27" points="1295.82 1037.81 1092.12 546.41 1097 546.41 1300.7 1037.81 1295.82 1037.81"/><polygon class="cls-28" points="1290.93 1037.81 1087.23 546.41 1092.12 546.41 1295.82 1037.81 1290.93 1037.81"/><polygon class="cls-29" points="1286.06 1037.81 1082.36 546.41 1087.23 546.41 1290.93 1037.81 1286.06 1037.81"/><polygon class="cls-30" points="1281.17 1037.81 1077.47 546.41 1082.36 546.41 1286.06 1037.81 1281.17 1037.81"/><polygon class="cls-31" points="1276.29 1037.81 1072.59 546.41 1077.47 546.41 1281.17 1037.81 1276.29 1037.81"/><polygon class="cls-32" points="1271.41 1037.81 1067.71 546.41 1072.59 546.41 1276.29 1037.81 1271.41 1037.81"/><polygon class="cls-33" points="1266.53 1037.81 1062.83 546.41 1067.71 546.41 1271.41 1037.81 1266.53 1037.81"/><polygon class="cls-34" points="1261.65 1037.81 1057.95 546.41 1062.83 546.41 1266.53 1037.81 1261.65 1037.81"/><polygon class="cls-35" points="1256.77 1037.81 1053.07 546.41 1057.95 546.41 1261.65 1037.81 1256.77 1037.81"/><polygon class="cls-36" points="1251.89 1037.81 1048.19 546.41 1053.07 546.41 1256.77 1037.81 1251.89 1037.81"/><polygon class="cls-37" points="1247.01 1037.81 1043.31 546.41 1048.19 546.41 1251.89 1037.81 1247.01 1037.81"/><polygon class="cls-38" points="1242.13 1037.81 1038.43 546.41 1043.31 546.41 1247.01 1037.81 1242.13 1037.81"/><polygon class="cls-39" points="1237.25 1037.81 1033.55 546.41 1038.43 546.41 1242.13 1037.81 1237.25 1037.81"/><polygon class="cls-40" points="1232.37 1037.81 1028.67 546.41 1033.55 546.41 1237.25 1037.81 1232.37 1037.81"/><polygon class="cls-41" points="1227.49 1037.81 1023.79 546.41 1028.67 546.41 1232.37 1037.81 1227.49 1037.81"/><polygon class="cls-42" points="1222.61 1037.81 1018.91 546.41 1023.79 546.41 1227.49 1037.81 1222.61 1037.81"/><polygon class="cls-43" points="1217.73 1037.81 1014.03 546.41 1018.91 546.41 1222.61 1037.81 1217.73 1037.81"/><polygon class="cls-44" points="1212.85 1037.81 1009.15 546.41 1014.03 546.41 1217.73 1037.81 1212.85 1037.81"/><polygon class="cls-45" points="1207.97 1037.81 1004.27 546.41 1009.15 546.41 1212.85 1037.81 1207.97 1037.81"/><polygon class="cls-46" points="1203.09 1037.81 999.39 546.41 1004.27 546.41 1207.97 1037.81 1203.09 1037.81"/><polygon class="cls-47" points="1198.21 1037.81 994.51 546.41 999.39 546.41 1203.09 1037.81 1198.21 1037.81"/><polygon class="cls-48" points="1193.33 1037.81 989.63 546.41 994.51 546.41 1198.21 1037.81 1193.33 1037.81"/><polygon class="cls-49" points="1188.44 1037.81 984.75 546.41 989.63 546.41 1193.33 1037.81 1188.44 1037.81"/><polygon class="cls-50" points="1183.56 1037.81 979.86 546.41 984.75 546.41 1188.44 1037.81 1183.56 1037.81"/><polygon class="cls-51" points="1178.68 1037.81 974.98 546.41 979.86 546.41 1183.56 1037.81 1178.68 1037.81"/><polygon class="cls-52" points="1173.8 1037.81 970.1 546.41 974.98 546.41 1178.68 1037.81 1173.8 1037.81"/><polygon class="cls-7" points="1168.92 1037.81 965.22 546.41 970.1 546.41 1173.8 1037.81 1168.92 1037.81"/><polygon class="cls-53" points="1164.04 1037.81 960.34 546.41 965.22 546.41 1168.92 1037.81 1164.04 1037.81"/><polygon class="cls-54" points="1159.16 1037.81 955.46 546.41 960.34 546.41 1164.04 1037.81 1159.16 1037.81"/><polygon class="cls-55" points="1154.28 1037.81 950.58 546.41 955.46 546.41 1159.16 1037.81 1154.28 1037.81"/><polygon class="cls-56" points="1149.4 1037.81 945.7 546.41 950.58 546.41 1154.28 1037.81 1149.4 1037.81"/><polygon class="cls-57" points="1144.52 1037.81 940.82 546.41 945.7 546.41 1149.4 1037.81 1144.52 1037.81"/><polygon class="cls-58" points="1139.64 1037.81 935.94 546.41 940.82 546.41 1144.52 1037.81 1139.64 1037.81"/><polygon class="cls-59" points="1134.76 1037.81 931.06 546.41 935.94 546.41 1139.64 1037.81 1134.76 1037.81"/><polygon class="cls-59" points="1129.88 1037.81 929.16 553.6 929.16 546.41 931.06 546.41 1134.76 1037.81 1129.88 1037.81"/><polygon class="cls-6" points="1125 1037.81 929.16 565.37 929.16 553.6 1129.88 1037.81 1125 1037.81"/><polygon class="cls-6" points="1120.12 1037.81 929.16 577.15 929.16 565.37 1125 1037.81 1120.12 1037.81"/><polygon class="cls-6" points="1114.53 1037.81 929.16 590.63 929.16 577.15 1120.12 1037.81 1114.53 1037.81"/><polygon class="cls-59" points="1108.94 1037.81 929.16 604.11 929.16 590.63 1114.53 1037.81 1108.94 1037.81"/><polygon class="cls-60" points="1103.36 1037.81 929.16 617.58 929.16 604.11 1108.94 1037.81 1103.36 1037.81"/><polygon class="cls-57" points="1097.77 1037.81 929.16 631.06 929.16 617.58 1103.36 1037.81 1097.77 1037.81"/><polygon class="cls-56" points="1092.18 1037.81 929.16 644.54 929.16 631.06 1097.77 1037.81 1092.18 1037.81"/><polygon class="cls-55" points="1086.59 1037.81 929.16 658.02 929.16 644.54 1092.18 1037.81 1086.59 1037.81"/><polygon class="cls-54" points="1081.01 1037.81 929.16 671.5 929.16 658.02 1086.59 1037.81 1081.01 1037.81"/><polygon class="cls-53" points="1075.42 1037.81 929.16 684.98 929.16 671.5 1081.01 1037.81 1075.42 1037.81"/><polygon class="cls-7" points="1069.83 1037.81 929.16 698.46 929.16 684.98 1075.42 1037.81 1069.83 1037.81"/><polygon class="cls-51" points="1064.24 1037.81 929.16 711.94 929.16 698.46 1069.83 1037.81 1064.24 1037.81"/><polygon class="cls-50" points="1058.65 1037.81 929.16 725.42 929.16 711.94 1064.24 1037.81 1058.65 1037.81"/><polygon class="cls-61" points="1053.07 1037.81 929.16 738.9 929.16 725.42 1058.65 1037.81 1053.07 1037.81"/><polygon class="cls-48" points="1047.48 1037.81 929.16 752.38 929.16 738.9 1053.07 1037.81 1047.48 1037.81"/><polygon class="cls-47" points="1041.89 1037.81 929.16 765.86 929.16 752.38 1047.48 1037.81 1041.89 1037.81"/><polygon class="cls-46" points="1036.3 1037.81 929.16 779.34 929.16 765.86 1041.89 1037.81 1036.3 1037.81"/><polygon class="cls-45" points="1030.72 1037.81 929.16 792.82 929.16 779.34 1036.3 1037.81 1030.72 1037.81"/><polygon class="cls-62" points="1025.13 1037.81 929.16 806.3 929.16 792.82 1030.72 1037.81 1025.13 1037.81"/><polygon class="cls-43" points="1019.54 1037.81 929.16 819.77 929.16 806.3 1025.13 1037.81 1019.54 1037.81"/><polygon class="cls-42" points="1013.95 1037.81 929.16 833.25 929.16 819.77 1019.54 1037.81 1013.95 1037.81"/><polygon class="cls-41" points="1008.37 1037.81 929.16 846.73 929.16 833.25 1013.95 1037.81 1008.37 1037.81"/><polygon class="cls-40" points="1002.78 1037.81 929.16 860.21 929.16 846.73 1008.37 1037.81 1002.78 1037.81"/><polygon class="cls-39" points="997.19 1037.81 929.16 873.69 929.16 860.21 1002.78 1037.81 997.19 1037.81"/><polygon class="cls-63" points="991.6 1037.81 929.16 887.17 929.16 873.69 997.19 1037.81 991.6 1037.81"/><polygon class="cls-64" points="986.01 1037.81 929.16 900.65 929.16 887.17 991.6 1037.81 986.01 1037.81"/><polygon class="cls-36" points="980.43 1037.81 929.16 914.13 929.16 900.65 986.01 1037.81 980.43 1037.81"/><polygon class="cls-35" points="974.84 1037.81 929.16 927.61 929.16 914.13 980.43 1037.81 974.84 1037.81"/><polygon class="cls-65" points="969.25 1037.81 929.16 941.09 929.16 927.61 974.84 1037.81 969.25 1037.81"/><polygon class="cls-33" points="963.66 1037.81 929.16 954.57 929.16 941.09 969.25 1037.81 963.66 1037.81"/><polygon class="cls-32" points="958.08 1037.81 929.16 968.05 929.16 954.57 963.66 1037.81 958.08 1037.81"/><polygon class="cls-31" points="952.49 1037.81 929.16 981.53 929.16 968.05 958.08 1037.81 952.49 1037.81"/><polygon class="cls-30" points="946.9 1037.81 929.16 995.01 929.16 981.53 952.49 1037.81 946.9 1037.81"/><polygon class="cls-66" points="941.31 1037.81 929.16 1008.49 929.16 995.01 946.9 1037.81 941.31 1037.81"/><polygon class="cls-67" points="935.73 1037.81 929.16 1021.97 929.16 1008.49 941.31 1037.81 935.73 1037.81"/><polygon class="cls-68" points="930.14 1037.81 929.16 1035.45 929.16 1021.97 935.73 1037.81 930.14 1037.81"/><polygon class="cls-69" points="929.16 1035.45 930.14 1037.81 929.16 1037.81 929.16 1035.45"/></g><path class="cls-70" d="M452.11,952.59v49.22H403.5q-19.51,0-34.81,14.1a36.54,36.54,0,0,0-10.21,14.4,44.31,44.31,0,0,0-3.3,16.21v102q0,19.8,13.51,31.51,15.3,14.1,34.81,14.1H595.85q19.8,0,35.11-14.1,13.5-13.51,13.5-31.51V546.41h49.22v602.14a87.67,87.67,0,0,1-7.95,37.06,94.8,94.8,0,0,1-21.46,29.86,102.94,102.94,0,0,1-31.36,20,96.45,96.45,0,0,1-37.06,7.35H403.5q-15.92,0-24.76-2.85t-12.45-4.05q-27.92-12.3-44.12-35T306,1148.55v-102a91.88,91.88,0,0,1,7.65-35.86,85.42,85.42,0,0,1,21.16-30.46q4.2-3.6,8-6.45t6.75-5.25a94.47,94.47,0,0,1,16.81-8.41,100.59,100.59,0,0,1,37.21-7.5Z"/><path class="cls-70" d="M733.52,546.44H798a96.49,96.49,0,0,1,37.06,7.35,104.17,104.17,0,0,1,31.66,20.26,93.31,93.31,0,0,1,21.6,30.31A88.54,88.54,0,0,1,896.17,641V844.73a90.9,90.9,0,0,1-1.5,17.25q-1.51,7.65-2.41,10.5a68.57,68.57,0,0,1-3.9,8.86,85,85,0,0,1-20.7,30,104.72,104.72,0,0,1-31.51,20.11A98.15,98.15,0,0,1,798,939H733.91V890.34H798q21,0,34.81-13.36a43.23,43.23,0,0,0,13.8-32.25V641a41.68,41.68,0,0,0-3.6-17.11,35.28,35.28,0,0,0-9.9-14.4A49.56,49.56,0,0,0,798,595.65H733.52Z"/><path class="cls-70" d="M1463.91,988.33h0Z"/><path class="cls-70" d="M1463.91,988.33h0Z"/><path class="cls-70" d="M1562.34,644.14V943a89.5,89.5,0,0,1-8,36.76,92.71,92.71,0,0,1-21.45,30.46,100.81,100.81,0,0,1-31.36,19.8,99.6,99.6,0,0,1-37.66,7.21v0h-293a100,100,0,0,1-38-7.36,91.15,91.15,0,0,1-30.76-19.95l-4.5-4.5-5.1,4.8a104.83,104.83,0,0,1-31.21,20.55q-16.81,7.07-37.51,7.06v-.23a100.83,100.83,0,0,1-33.79-7.14,99.55,99.55,0,0,1-31.81-19.8,93.1,93.1,0,0,1-29.1-67.22v-397h49.21v397a56.8,56.8,0,0,0,.6,8.85,35.7,35.7,0,0,0,2.7,8.55,50.58,50.58,0,0,0,42.19,27.81v0a49.55,49.55,0,0,0,35.11-13.8,37.48,37.48,0,0,0,10.35-14.7,46.23,46.23,0,0,0,3.45-17.11V739.52a86.46,86.46,0,0,1,8.4-36.91,98.2,98.2,0,0,1,89.73-57.31h146.74a94,94,0,0,1,37.21,8.1,109.76,109.76,0,0,1,32.41,20.1A82.33,82.33,0,0,1,1408,703.21a55.75,55.75,0,0,1,3.9,8.71,104.22,104.22,0,0,1,2.4,10.65c3,16.73,5.42,28.28-3.66,38.91L1227.09,943.24h-67.7l207.16-203.72c6.17-6-4.6-22.9-13.8-31.51a40.07,40.07,0,0,0-15.9-10.2,54.45,54.45,0,0,0-19.21-3.6H1170.9a52,52,0,0,0-18.91,3.6q-14.4,6.3-22.35,17.71t-8,24V943.58q0,17.71,14.11,30.91a71.5,71.5,0,0,0,15.9,10.2,56.09,56.09,0,0,0,19.21,3.6h293.78v0h0a49.77,49.77,0,0,0,34.64-13.79,40.76,40.76,0,0,0,10.5-14.71,44.12,44.12,0,0,0,3.3-16.8V644.14Z"/><path class="cls-70" d="M452.11,952.59v49.22H403.5q-19.51,0-34.81,14.1a36.54,36.54,0,0,0-10.21,14.4,44.31,44.31,0,0,0-3.3,16.21v102q0,19.8,13.51,31.51,15.3,14.1,34.81,14.1H595.85q19.8,0,35.11-14.1,13.5-13.51,13.5-31.51V546.41h49.22v602.14a87.67,87.67,0,0,1-7.95,37.06,94.8,94.8,0,0,1-21.46,29.86,102.94,102.94,0,0,1-31.36,20,96.45,96.45,0,0,1-37.06,7.35H403.5q-15.92,0-24.76-2.85t-12.45-4.05q-27.92-12.3-44.12-35T306,1148.55v-102a91.88,91.88,0,0,1,7.65-35.86,85.42,85.42,0,0,1,21.16-30.46q4.2-3.6,8-6.45t6.75-5.25a94.47,94.47,0,0,1,16.81-8.41,100.59,100.59,0,0,1,37.21-7.5Z"/><path class="cls-70" d="M733.52,546.44H798a96.49,96.49,0,0,1,37.06,7.35,104.17,104.17,0,0,1,31.66,20.26,93.31,93.31,0,0,1,21.6,30.31A88.54,88.54,0,0,1,896.17,641V844.73a90.9,90.9,0,0,1-1.5,17.25q-1.51,7.65-2.41,10.5a68.57,68.57,0,0,1-3.9,8.86,85,85,0,0,1-20.7,30,104.72,104.72,0,0,1-31.51,20.11A98.15,98.15,0,0,1,798,939H733.91V890.34H798q21,0,34.81-13.36a43.23,43.23,0,0,0,13.8-32.25V641a41.68,41.68,0,0,0-3.6-17.11,35.28,35.28,0,0,0-9.9-14.4A49.56,49.56,0,0,0,798,595.65H733.52Z"/><path class="cls-70" d="M1463.91,988.33h0Z"/><path class="cls-70" d="M1463.91,988.33h0Z"/><path class="cls-70" d="M1562.34,644.14V943a89.5,89.5,0,0,1-8,36.76,92.71,92.71,0,0,1-21.45,30.46,100.81,100.81,0,0,1-31.36,19.8,99.6,99.6,0,0,1-37.66,7.21v0h-293a100,100,0,0,1-38-7.36,91.15,91.15,0,0,1-30.76-19.95l-4.5-4.5-5.1,4.8a104.83,104.83,0,0,1-31.21,20.55q-16.81,7.07-37.51,7.06v-.23a100.83,100.83,0,0,1-33.79-7.14,99.55,99.55,0,0,1-31.81-19.8,93.1,93.1,0,0,1-29.1-67.22v-397h49.21v397a56.8,56.8,0,0,0,.6,8.85,35.7,35.7,0,0,0,2.7,8.55,50.58,50.58,0,0,0,42.19,27.81v0a49.55,49.55,0,0,0,35.11-13.8,37.48,37.48,0,0,0,10.35-14.7,46.23,46.23,0,0,0,3.45-17.11V739.52a86.46,86.46,0,0,1,8.4-36.91,98.2,98.2,0,0,1,89.73-57.31h146.74a94,94,0,0,1,37.21,8.1,109.76,109.76,0,0,1,32.41,20.1A82.33,82.33,0,0,1,1408,703.21a55.75,55.75,0,0,1,3.9,8.71,104.22,104.22,0,0,1,2.4,10.65c3,16.73,5.42,28.28-3.66,38.91L1227.09,943.24h-67.7l207.16-203.72c6.17-6-4.6-22.9-13.8-31.51a40.07,40.07,0,0,0-15.9-10.2,54.45,54.45,0,0,0-19.21-3.6H1170.9a52,52,0,0,0-18.91,3.6q-14.4,6.3-22.35,17.71t-8,24V943.58q0,17.71,14.11,30.91a71.5,71.5,0,0,0,15.9,10.2,56.09,56.09,0,0,0,19.21,3.6h293.78v0h0a49.77,49.77,0,0,0,34.64-13.79,40.76,40.76,0,0,0,10.5-14.71,44.12,44.12,0,0,0,3.3-16.8V644.14Z"/><g class="cls-2"><polygon class="cls-71" points="693.68 570.08 686.6 546.41 693.68 546.41 693.68 570.08"/><polygon class="cls-72" points="693.68 604.9 676.18 546.41 686.6 546.41 693.68 570.08 693.68 604.9"/><polygon class="cls-73" points="693.68 639.72 665.77 546.41 676.18 546.41 693.68 604.9 693.68 639.72"/><polygon class="cls-74" points="693.68 674.54 655.36 546.41 665.77 546.41 693.68 639.72 693.68 674.54"/><polygon class="cls-75" points="693.68 709.36 644.95 546.41 655.36 546.41 693.68 674.54 693.68 709.36"/><polygon class="cls-76" points="693.68 744.18 634.78 547.22 637.48 546.41 644.95 546.41 693.68 709.36 693.68 744.18"/><polygon class="cls-77" points="693.68 779 625.22 550.08 634.78 547.22 693.68 744.18 693.68 779"/><polygon class="cls-78" points="693.68 813.82 615.66 552.93 625.22 550.08 693.68 779 693.68 813.82"/><polygon class="cls-79" points="693.68 848.64 606.1 555.79 615.66 552.93 693.68 813.82 693.68 848.64"/><polygon class="cls-80" points="693.68 883.46 596.54 558.65 606.1 555.79 693.68 848.64 693.68 883.46"/><polygon class="cls-81" points="693.68 918.28 586.99 561.51 596.54 558.65 693.68 883.46 693.68 918.28"/><polygon class="cls-82" points="693.68 953.1 577.43 564.37 586.99 561.51 693.68 918.28 693.68 953.1"/><polygon class="cls-83" points="693.68 987.92 567.87 567.23 577.43 564.37 693.68 953.1 693.68 987.92"/><polygon class="cls-84" points="693.68 1022.74 558.31 570.09 567.87 567.23 693.68 987.92 693.68 1022.74"/><polygon class="cls-85" points="693.68 1057.56 548.75 572.94 558.31 570.09 693.68 1022.74 693.68 1057.56"/><polygon class="cls-86" points="693.68 1092.38 539.19 575.8 548.75 572.94 693.68 1057.56 693.68 1092.38"/><polygon class="cls-87" points="693.68 1127.2 529.64 578.66 539.19 575.8 693.68 1092.38 693.68 1127.2"/><polygon class="cls-88" points="693.68 1162.02 520.08 581.52 529.64 578.66 693.68 1127.2 693.68 1162.02"/><polygon class="cls-89" points="693.68 1196.84 510.52 584.38 520.08 581.52 693.68 1162.02 693.68 1196.84"/><polygon class="cls-90" points="693.68 1220.68 690.66 1221.58 500.96 587.24 510.52 584.38 693.68 1196.84 693.68 1220.68"/><rect class="cls-91" x="586.05" y="574.79" width="9.98" height="662.1" transform="translate(-234.76 207.32) rotate(-16.65)"/><rect class="cls-92" x="576.49" y="577.64" width="9.98" height="662.1" transform="translate(-235.98 204.7) rotate(-16.65)"/><rect class="cls-93" x="566.93" y="580.5" width="9.98" height="662.1" transform="translate(-237.2 202.08) rotate(-16.65)"/><rect class="cls-94" x="557.37" y="583.36" width="9.98" height="662.1" transform="translate(-238.42 199.46) rotate(-16.65)"/><rect class="cls-95" x="547.81" y="586.22" width="9.98" height="662.1" transform="translate(-239.64 196.84) rotate(-16.65)"/><rect class="cls-96" x="538.25" y="589.08" width="9.98" height="662.1" transform="translate(-240.86 194.22) rotate(-16.65)"/><rect class="cls-97" x="528.7" y="591.94" width="9.98" height="662.1" transform="translate(-242.08 191.61) rotate(-16.65)"/><polygon class="cls-98" points="623.76 1241.59 619.79 1242.77 613.7 1242.77 424.5 610.1 434.05 607.25 623.76 1241.59"/><polygon class="cls-99" points="603.29 1242.77 414.94 612.96 424.5 610.1 613.7 1242.77 603.29 1242.77"/><polygon class="cls-100" points="592.87 1242.77 405.38 615.82 414.94 612.96 603.29 1242.77 592.87 1242.77"/><polygon class="cls-101" points="582.46 1242.77 395.82 618.68 405.38 615.82 592.87 1242.77 582.46 1242.77"/><polygon class="cls-102" points="572.05 1242.77 386.26 621.54 395.82 618.68 582.46 1242.77 572.05 1242.77"/><polygon class="cls-103" points="561.63 1242.77 376.7 624.39 386.26 621.54 572.05 1242.77 561.63 1242.77"/><polygon class="cls-104" points="551.22 1242.77 367.15 627.25 376.7 624.39 561.63 1242.77 551.22 1242.77"/><polygon class="cls-105" points="540.81 1242.77 357.59 630.11 367.15 627.25 551.22 1242.77 540.81 1242.77"/><polygon class="cls-106" points="530.39 1242.77 348.03 632.97 357.59 630.11 540.81 1242.77 530.39 1242.77"/><polygon class="cls-107" points="519.98 1242.77 338.47 635.83 348.03 632.97 530.39 1242.77 519.98 1242.77"/><polygon class="cls-108" points="509.57 1242.77 328.91 638.69 338.47 635.83 519.98 1242.77 509.57 1242.77"/><polygon class="cls-109" points="499.15 1242.77 319.36 641.55 328.91 638.69 509.57 1242.77 499.15 1242.77"/><polygon class="cls-110" points="488.74 1242.77 309.8 644.4 319.36 641.55 499.15 1242.77 488.74 1242.77"/><polygon class="cls-111" points="478.33 1242.77 305.97 666.42 305.97 645.55 309.8 644.4 488.74 1242.77 478.33 1242.77"/><polygon class="cls-112" points="467.92 1242.77 305.97 701.24 305.97 666.42 478.33 1242.77 467.92 1242.77"/><polygon class="cls-113" points="457.5 1242.77 305.97 736.06 305.97 701.24 467.92 1242.77 457.5 1242.77"/><polygon class="cls-114" points="447.09 1242.77 305.97 770.88 305.97 736.06 457.5 1242.77 447.09 1242.77"/><polygon class="cls-115" points="436.68 1242.77 305.97 805.7 305.97 770.88 447.09 1242.77 436.68 1242.77"/><polygon class="cls-116" points="426.26 1242.77 305.97 840.52 305.97 805.7 436.68 1242.77 426.26 1242.77"/><polygon class="cls-117" points="415.85 1242.77 305.97 875.34 305.97 840.52 426.26 1242.77 415.85 1242.77"/><polygon class="cls-118" points="405.44 1242.77 305.97 910.16 305.97 875.34 415.85 1242.77 405.44 1242.77"/><polygon class="cls-119" points="395.02 1242.77 305.97 944.98 305.97 910.16 405.44 1242.77 395.02 1242.77"/><polygon class="cls-120" points="384.61 1242.77 305.97 979.8 305.97 944.98 395.02 1242.77 384.61 1242.77"/><polygon class="cls-121" points="374.2 1242.77 305.97 1014.62 305.97 979.8 384.61 1242.77 374.2 1242.77"/><polygon class="cls-122" points="363.79 1242.77 305.97 1049.44 305.97 1014.62 374.2 1242.77 363.79 1242.77"/><polygon class="cls-123" points="353.37 1242.77 305.97 1084.26 305.97 1049.44 363.79 1242.77 353.37 1242.77"/><polygon class="cls-124" points="342.96 1242.77 305.97 1119.08 305.97 1084.26 353.37 1242.77 342.96 1242.77"/><polygon class="cls-124" points="305.97 1119.08 342.96 1242.77 305.97 1242.77 305.97 1119.08"/></g><g class="cls-4"><polygon class="cls-125" points="896.16 550.78 894.87 546.44 896.16 546.44 896.16 550.78"/><polygon class="cls-126" points="896.16 585.6 884.46 546.44 894.87 546.44 896.16 550.78 896.16 585.6"/><polygon class="cls-127" points="896.16 620.42 874.04 546.44 884.46 546.44 896.16 585.6 896.16 620.42"/><polygon class="cls-128" points="896.16 655.24 863.63 546.44 874.04 546.44 896.16 620.42 896.16 655.24"/><polygon class="cls-129" points="896.16 690.06 853.22 546.44 863.63 546.44 896.16 655.24 896.16 690.06"/><polygon class="cls-130" points="896.16 724.88 842.8 546.44 853.22 546.44 896.16 690.06 896.16 724.88"/><polygon class="cls-131" points="896.16 759.7 832.39 546.44 842.8 546.44 896.16 724.88 896.16 759.7"/><polygon class="cls-132" points="896.16 794.52 821.98 546.44 832.39 546.44 896.16 759.7 896.16 794.52"/><polygon class="cls-133" points="896.16 829.34 811.56 546.44 821.98 546.44 896.16 794.52 896.16 829.34"/><polygon class="cls-134" points="896.16 864.16 801.15 546.44 811.56 546.44 896.16 829.34 896.16 864.16"/><polygon class="cls-135" points="896.16 898.98 790.74 546.44 801.15 546.44 896.16 864.16 896.16 898.98"/><polygon class="cls-136" points="896.16 917 891.55 918.38 780.33 546.44 790.74 546.44 896.16 898.98 896.16 917"/><polygon class="cls-137" points="891.55 918.38 882 921.24 769.91 546.44 780.33 546.44 891.55 918.38"/><polygon class="cls-138" points="882 921.24 872.44 924.1 759.5 546.44 769.91 546.44 882 921.24"/><polygon class="cls-139" points="872.44 924.1 862.88 926.96 749.09 546.44 759.5 546.44 872.44 924.1"/><polygon class="cls-140" points="862.88 926.96 853.32 929.81 738.67 546.44 749.09 546.44 862.88 926.96"/><polygon class="cls-141" points="853.32 929.81 843.76 932.67 733.52 564.04 733.52 546.44 738.67 546.44 853.32 929.81"/><polygon class="cls-142" points="843.76 932.67 834.21 935.53 733.52 598.86 733.52 564.04 843.76 932.67"/><polygon class="cls-143" points="834.21 935.53 824.65 938.39 733.52 633.68 733.52 598.86 834.21 935.53"/><polygon class="cls-144" points="824.65 938.39 822.77 938.95 814.4 938.95 733.52 668.5 733.52 633.68 824.65 938.39"/><polygon class="cls-71" points="803.99 938.95 733.52 703.32 733.52 668.5 814.4 938.95 803.99 938.95"/><polygon class="cls-72" points="793.58 938.95 733.52 738.14 733.52 703.32 803.99 938.95 793.58 938.95"/><polygon class="cls-73" points="783.16 938.95 733.52 772.96 733.52 738.14 793.58 938.95 783.16 938.95"/><polygon class="cls-74" points="772.75 938.95 733.52 807.78 733.52 772.96 783.16 938.95 772.75 938.95"/><polygon class="cls-75" points="762.34 938.95 733.52 842.6 733.52 807.78 772.75 938.95 762.34 938.95"/><polygon class="cls-76" points="751.92 938.95 733.52 877.42 733.52 842.6 762.34 938.95 751.92 938.95"/><polygon class="cls-77" points="741.51 938.95 733.52 912.24 733.52 877.42 751.92 938.95 741.51 938.95"/><polygon class="cls-78" points="733.52 912.24 741.51 938.95 733.52 938.95 733.52 912.24"/></g><g class="cls-5"><rect class="cls-80" x="1464.01" y="988.32" width="0.67" height="0.01" transform="translate(-221.76 460.94) rotate(-16.65)"/><rect class="cls-79" x="1463.91" y="988.32" width="0.1" height="0.01" transform="translate(-221.78 460.83) rotate(-16.65)"/></g><g class="cls-5"><rect class="cls-80" x="1464.01" y="988.32" width="0.67" height="0.01" transform="translate(-221.76 460.94) rotate(-16.65)"/><rect class="cls-79" x="1463.91" y="988.32" width="0.1" height="0.01" transform="translate(-221.78 460.83) rotate(-16.65)"/></g><g class="cls-8"><polygon class="cls-124" points="1562.34 569.77 1555.35 546.41 1562.34 546.41 1562.34 569.77"/><polygon class="cls-124" points="1562.34 588.94 1549.62 546.41 1555.35 546.41 1562.34 569.77 1562.34 588.94"/><polygon class="cls-145" points="1562.34 608.1 1543.89 546.41 1549.62 546.41 1562.34 588.94 1562.34 608.1"/><polygon class="cls-122" points="1562.34 627.26 1538.16 546.41 1543.89 546.41 1562.34 608.1 1562.34 627.26"/><polygon class="cls-146" points="1562.34 646.42 1532.43 546.41 1538.16 546.41 1562.34 627.26 1562.34 646.42"/><polygon class="cls-119" points="1562.34 665.59 1526.7 546.41 1532.43 546.41 1562.34 646.42 1562.34 665.59"/><polygon class="cls-118" points="1562.34 684.75 1520.97 546.41 1526.7 546.41 1562.34 665.59 1562.34 684.75"/><polygon class="cls-117" points="1562.34 703.91 1515.24 546.41 1520.97 546.41 1562.34 684.75 1562.34 703.91"/><polygon class="cls-115" points="1562.34 723.07 1509.51 546.41 1515.24 546.41 1562.34 703.91 1562.34 723.07"/><polygon class="cls-147" points="1562.34 742.24 1503.78 546.41 1509.51 546.41 1562.34 723.07 1562.34 742.24"/><polygon class="cls-113" points="1562.34 761.4 1498.05 546.41 1503.78 546.41 1562.34 742.24 1562.34 761.4"/><polygon class="cls-148" points="1562.34 780.56 1492.32 546.41 1498.05 546.41 1562.34 761.4 1562.34 780.56"/><polygon class="cls-149" points="1562.34 799.72 1486.58 546.41 1492.32 546.41 1562.34 780.56 1562.34 799.72"/><polygon class="cls-150" points="1562.34 818.89 1480.85 546.41 1486.58 546.41 1562.34 799.72 1562.34 818.89"/><polygon class="cls-108" points="1562.34 838.05 1475.12 546.41 1480.85 546.41 1562.34 818.89 1562.34 838.05"/><polygon class="cls-107" points="1562.34 857.21 1469.39 546.41 1475.12 546.41 1562.34 838.05 1562.34 857.21"/><polygon class="cls-151" points="1562.34 876.38 1463.66 546.41 1469.39 546.41 1562.34 857.21 1562.34 876.38"/><polygon class="cls-152" points="1562.34 895.54 1457.93 546.41 1463.66 546.41 1562.34 876.38 1562.34 895.54"/><polygon class="cls-153" points="1562.34 914.7 1452.2 546.41 1457.93 546.41 1562.34 895.54 1562.34 914.7"/><polygon class="cls-102" points="1562.34 933.86 1446.47 546.41 1452.2 546.41 1562.34 914.7 1562.34 933.86"/><polygon class="cls-101" points="1562.34 953.02 1440.74 546.41 1446.47 546.41 1562.34 933.86 1562.34 953.02"/><polygon class="cls-154" points="1562.34 972.19 1435.01 546.41 1440.74 546.41 1562.34 953.02 1562.34 972.19"/><polygon class="cls-99" points="1562.34 991.35 1429.28 546.41 1435.01 546.41 1562.34 972.19 1562.34 991.35"/><polygon class="cls-98" points="1562.34 1010.51 1423.55 546.41 1429.28 546.41 1562.34 991.35 1562.34 1010.51"/><polygon class="cls-155" points="1562.34 1015.2 1558.37 1016.39 1417.82 546.41 1423.55 546.41 1562.34 1010.51 1562.34 1015.2"/><polygon class="cls-156" points="1558.37 1016.39 1553.11 1017.96 1412.09 546.41 1417.82 546.41 1558.37 1016.39"/><polygon class="cls-157" points="1553.11 1017.96 1547.85 1019.54 1406.36 546.41 1412.09 546.41 1553.11 1017.96"/><polygon class="cls-93" points="1547.85 1019.54 1542.59 1021.11 1400.62 546.41 1406.36 546.41 1547.85 1019.54"/><polygon class="cls-92" points="1542.59 1021.11 1537.33 1022.68 1394.89 546.41 1400.62 546.41 1542.59 1021.11"/><polygon class="cls-91" points="1537.33 1022.68 1532.07 1024.26 1389.16 546.41 1394.89 546.41 1537.33 1022.68"/><polygon class="cls-158" points="1532.07 1024.26 1526.81 1025.83 1383.43 546.41 1389.16 546.41 1532.07 1024.26"/><polygon class="cls-88" points="1526.81 1025.83 1521.54 1027.4 1377.7 546.41 1383.43 546.41 1526.81 1025.83"/><polygon class="cls-159" points="1521.54 1027.4 1516.28 1028.98 1371.97 546.41 1377.7 546.41 1521.54 1027.4"/><polygon class="cls-160" points="1516.28 1028.98 1511.02 1030.55 1366.24 546.41 1371.97 546.41 1516.28 1028.98"/><polygon class="cls-86" points="1511.02 1030.55 1505.76 1032.12 1360.51 546.41 1366.24 546.41 1511.02 1030.55"/><polygon class="cls-161" points="1505.76 1032.12 1500.5 1033.69 1354.78 546.41 1360.51 546.41 1505.76 1032.12"/><polygon class="cls-83" points="1500.5 1033.69 1495.24 1035.27 1349.05 546.41 1354.78 546.41 1500.5 1033.69"/><polygon class="cls-82" points="1495.24 1035.27 1489.98 1036.84 1343.32 546.41 1349.05 546.41 1495.24 1035.27"/><polygon class="cls-81" points="1489.98 1036.84 1486.74 1037.81 1484.54 1037.81 1337.59 546.41 1343.32 546.41 1489.98 1036.84"/><polygon class="cls-80" points="1478.81 1037.81 1331.86 546.41 1337.59 546.41 1484.54 1037.81 1478.81 1037.81"/><polygon class="cls-79" points="1473.08 1037.81 1326.13 546.41 1331.86 546.41 1478.81 1037.81 1473.08 1037.81"/><polygon class="cls-78" points="1467.35 1037.81 1320.39 546.41 1326.13 546.41 1473.08 1037.81 1467.35 1037.81"/><polygon class="cls-76" points="1461.62 1037.81 1314.66 546.41 1320.39 546.41 1467.35 1037.81 1461.62 1037.81"/><polygon class="cls-162" points="1455.89 1037.81 1308.93 546.41 1314.66 546.41 1461.62 1037.81 1455.89 1037.81"/><polygon class="cls-74" points="1450.16 1037.81 1303.2 546.41 1308.93 546.41 1455.89 1037.81 1450.16 1037.81"/><polygon class="cls-73" points="1444.43 1037.81 1297.47 546.41 1303.2 546.41 1450.16 1037.81 1444.43 1037.81"/><polygon class="cls-163" points="1438.7 1037.81 1291.74 546.41 1297.47 546.41 1444.43 1037.81 1438.7 1037.81"/><polygon class="cls-71" points="1432.97 1037.81 1286.01 546.41 1291.74 546.41 1438.7 1037.81 1432.97 1037.81"/><polygon class="cls-144" points="1427.24 1037.81 1280.28 546.41 1286.01 546.41 1432.97 1037.81 1427.24 1037.81"/><polygon class="cls-143" points="1421.51 1037.81 1274.55 546.41 1280.28 546.41 1427.24 1037.81 1421.51 1037.81"/><polygon class="cls-164" points="1415.78 1037.81 1268.82 546.41 1274.55 546.41 1421.51 1037.81 1415.78 1037.81"/><polygon class="cls-141" points="1410.04 1037.81 1263.09 546.41 1268.82 546.41 1415.78 1037.81 1410.04 1037.81"/><polygon class="cls-165" points="1404.31 1037.81 1257.36 546.41 1263.09 546.41 1410.04 1037.81 1404.31 1037.81"/><polygon class="cls-166" points="1398.58 1037.81 1251.63 546.41 1257.36 546.41 1404.31 1037.81 1398.58 1037.81"/><polygon class="cls-138" points="1392.85 1037.81 1245.9 546.41 1251.63 546.41 1398.58 1037.81 1392.85 1037.81"/><polygon class="cls-137" points="1387.12 1037.81 1240.17 546.41 1245.9 546.41 1392.85 1037.81 1387.12 1037.81"/><polygon class="cls-136" points="1381.39 1037.81 1234.43 546.41 1240.17 546.41 1387.12 1037.81 1381.39 1037.81"/><polygon class="cls-135" points="1375.66 1037.81 1228.7 546.41 1234.43 546.41 1381.39 1037.81 1375.66 1037.81"/><polygon class="cls-135" points="1369.93 1037.81 1222.97 546.41 1228.7 546.41 1375.66 1037.81 1369.93 1037.81"/><polygon class="cls-134" points="1364.2 1037.81 1217.24 546.41 1222.97 546.41 1369.93 1037.81 1364.2 1037.81"/><polygon class="cls-167" points="1358.47 1037.81 1211.51 546.41 1217.24 546.41 1364.2 1037.81 1358.47 1037.81"/><polygon class="cls-132" points="1352.74 1037.81 1205.78 546.41 1211.51 546.41 1358.47 1037.81 1352.74 1037.81"/><polygon class="cls-130" points="1347.01 1037.81 1200.05 546.41 1205.78 546.41 1352.74 1037.81 1347.01 1037.81"/><polygon class="cls-168" points="1341.28 1037.81 1194.32 546.41 1200.05 546.41 1347.01 1037.81 1341.28 1037.81"/><polygon class="cls-129" points="1335.55 1037.81 1188.59 546.41 1194.32 546.41 1341.28 1037.81 1335.55 1037.81"/><polygon class="cls-128" points="1329.82 1037.81 1182.86 546.41 1188.59 546.41 1335.55 1037.81 1329.82 1037.81"/><polygon class="cls-127" points="1324.08 1037.81 1177.13 546.41 1182.86 546.41 1329.82 1037.81 1324.08 1037.81"/><polygon class="cls-127" points="1318.35 1037.81 1171.4 546.41 1177.13 546.41 1324.08 1037.81 1318.35 1037.81"/><polygon class="cls-125" points="1312.62 1037.81 1165.67 546.41 1171.4 546.41 1318.35 1037.81 1312.62 1037.81"/><polygon class="cls-169" points="1306.89 1037.81 1159.94 546.41 1165.67 546.41 1312.62 1037.81 1306.89 1037.81"/><polygon class="cls-170" points="1301.16 1037.81 1154.21 546.41 1159.94 546.41 1306.89 1037.81 1301.16 1037.81"/><polygon class="cls-170" points="1295.43 1037.81 1148.48 546.41 1154.21 546.41 1301.16 1037.81 1295.43 1037.81"/><polygon class="cls-171" points="1289.7 1037.81 1142.74 546.41 1148.48 546.41 1295.43 1037.81 1289.7 1037.81"/><polygon class="cls-171" points="1283.97 1037.81 1137.01 546.41 1142.74 546.41 1289.7 1037.81 1283.97 1037.81"/><polygon class="cls-172" points="1278.24 1037.81 1131.28 546.41 1137.01 546.41 1283.97 1037.81 1278.24 1037.81"/><polygon class="cls-173" points="1272.51 1037.81 1125.55 546.41 1131.28 546.41 1278.24 1037.81 1272.51 1037.81"/><polygon class="cls-173" points="1266.78 1037.81 1119.82 546.41 1125.55 546.41 1272.51 1037.81 1266.78 1037.81"/><polygon class="cls-174" points="1261.05 1037.81 1114.09 546.41 1119.82 546.41 1266.78 1037.81 1261.05 1037.81"/><polygon class="cls-174" points="1255.32 1037.81 1108.36 546.41 1114.09 546.41 1261.05 1037.81 1255.32 1037.81"/><polygon class="cls-174" points="1249.59 1037.81 1102.63 546.41 1108.36 546.41 1255.32 1037.81 1249.59 1037.81"/><polygon class="cls-175" points="1243.86 1037.81 1096.9 546.41 1102.63 546.41 1249.59 1037.81 1243.86 1037.81"/><polygon class="cls-175" points="1238.12 1037.81 1091.17 546.41 1096.9 546.41 1243.86 1037.81 1238.12 1037.81"/><polygon class="cls-176" points="1232.39 1037.81 1085.44 546.41 1091.17 546.41 1238.12 1037.81 1232.39 1037.81"/><polygon class="cls-176" points="1226.66 1037.81 1079.71 546.41 1085.44 546.41 1232.39 1037.81 1226.66 1037.81"/><polygon class="cls-177" points="1220.93 1037.81 1073.98 546.41 1079.71 546.41 1226.66 1037.81 1220.93 1037.81"/><polygon class="cls-178" points="1215.2 1037.81 1068.25 546.41 1073.98 546.41 1220.93 1037.81 1215.2 1037.81"/><polygon class="cls-178" points="1209.47 1037.81 1062.52 546.41 1068.25 546.41 1215.2 1037.81 1209.47 1037.81"/><polygon class="cls-178" points="1203.74 1037.81 1056.79 546.41 1062.52 546.41 1209.47 1037.81 1203.74 1037.81"/><polygon class="cls-178" points="1198.01 1037.81 1051.05 546.41 1056.79 546.41 1203.74 1037.81 1198.01 1037.81"/><polygon class="cls-178" points="1187.6 1037.81 1040.64 546.41 1051.05 546.41 1198.01 1037.81 1187.6 1037.81"/><polygon class="cls-178" points="1177.18 1037.81 1030.23 546.41 1040.64 546.41 1187.6 1037.81 1177.18 1037.81"/><polygon class="cls-176" points="1166.77 1037.81 1019.82 546.41 1030.23 546.41 1177.18 1037.81 1166.77 1037.81"/><polygon class="cls-176" points="1156.36 1037.81 1009.4 546.41 1019.82 546.41 1166.77 1037.81 1156.36 1037.81"/><polygon class="cls-175" points="1145.94 1037.81 998.99 546.41 1009.4 546.41 1156.36 1037.81 1145.94 1037.81"/><polygon class="cls-179" points="1135.53 1037.81 988.58 546.41 998.99 546.41 1145.94 1037.81 1135.53 1037.81"/><polygon class="cls-174" points="1125.12 1037.81 978.16 546.41 988.58 546.41 1135.53 1037.81 1125.12 1037.81"/><polygon class="cls-180" points="1114.71 1037.81 967.75 546.41 978.16 546.41 1125.12 1037.81 1114.71 1037.81"/><polygon class="cls-173" points="1104.29 1037.81 957.34 546.41 967.75 546.41 1114.71 1037.81 1104.29 1037.81"/><polygon class="cls-172" points="1093.88 1037.81 946.92 546.41 957.34 546.41 1104.29 1037.81 1093.88 1037.81"/><polygon class="cls-171" points="1083.47 1037.81 936.51 546.41 946.92 546.41 1093.88 1037.81 1083.47 1037.81"/><polygon class="cls-171" points="1073.05 1037.81 929.16 556.64 929.16 546.41 936.51 546.41 1083.47 1037.81 1073.05 1037.81"/><polygon class="cls-170" points="1062.64 1037.81 929.16 591.46 929.16 556.64 1073.05 1037.81 1062.64 1037.81"/><polygon class="cls-181" points="1052.23 1037.81 929.16 626.28 929.16 591.46 1062.64 1037.81 1052.23 1037.81"/><polygon class="cls-125" points="1041.82 1037.81 929.16 661.1 929.16 626.28 1052.23 1037.81 1041.82 1037.81"/><polygon class="cls-126" points="1031.4 1037.81 929.16 695.92 929.16 661.1 1041.82 1037.81 1031.4 1037.81"/><polygon class="cls-127" points="1020.99 1037.81 929.16 730.74 929.16 695.92 1031.4 1037.81 1020.99 1037.81"/><polygon class="cls-128" points="1010.58 1037.81 929.16 765.56 929.16 730.74 1020.99 1037.81 1010.58 1037.81"/><polygon class="cls-129" points="1000.16 1037.81 929.16 800.38 929.16 765.56 1010.58 1037.81 1000.16 1037.81"/><polygon class="cls-130" points="989.75 1037.81 929.16 835.2 929.16 800.38 1000.16 1037.81 989.75 1037.81"/><polygon class="cls-131" points="979.34 1037.81 929.16 870.02 929.16 835.2 989.75 1037.81 979.34 1037.81"/><polygon class="cls-132" points="968.92 1037.81 929.16 904.84 929.16 870.02 979.34 1037.81 968.92 1037.81"/><polygon class="cls-133" points="958.51 1037.81 929.16 939.66 929.16 904.84 968.92 1037.81 958.51 1037.81"/><polygon class="cls-134" points="948.1 1037.81 929.16 974.48 929.16 939.66 958.51 1037.81 948.1 1037.81"/><polygon class="cls-135" points="937.68 1037.81 929.16 1009.3 929.16 974.48 948.1 1037.81 937.68 1037.81"/><polygon class="cls-136" points="929.16 1009.3 937.68 1037.81 929.16 1037.81 929.16 1009.3"/></g><g class="cls-182"><polygon class="cls-161" points="1562.08 568.37 1555.28 551.97 1562.08 551.97 1562.08 568.37"/><polygon class="cls-83" points="1562.08 586.02 1547.96 551.97 1555.28 551.97 1562.08 568.37 1562.08 586.02"/><polygon class="cls-80" points="1561.13 601.39 1540.65 551.97 1547.96 551.97 1562.08 586.02 1562.08 601.39 1561.13 601.39"/><polygon class="cls-78" points="1553.82 601.39 1533.33 551.97 1540.65 551.97 1561.13 601.39 1553.82 601.39"/><polygon class="cls-76" points="1546.5 601.39 1526.02 551.97 1533.33 551.97 1553.82 601.39 1546.5 601.39"/><polygon class="cls-183" points="1539.19 601.39 1518.7 551.97 1526.02 551.97 1546.5 601.39 1539.19 601.39"/><polygon class="cls-72" points="1531.87 601.39 1511.38 551.97 1518.7 551.97 1539.19 601.39 1531.87 601.39"/><polygon class="cls-144" points="1524.56 601.39 1504.07 551.97 1511.38 551.97 1531.87 601.39 1524.56 601.39"/><polygon class="cls-164" points="1517.24 601.39 1496.75 551.97 1504.07 551.97 1524.56 601.39 1517.24 601.39"/><polygon class="cls-165" points="1509.92 601.39 1489.44 551.97 1496.75 551.97 1517.24 601.39 1509.92 601.39"/><polygon class="cls-139" points="1502.61 601.39 1482.12 551.97 1489.44 551.97 1509.92 601.39 1502.61 601.39"/><polygon class="cls-137" points="1495.29 601.39 1474.81 551.97 1482.12 551.97 1502.61 601.39 1495.29 601.39"/><polygon class="cls-184" points="1487.98 601.39 1467.49 551.97 1474.81 551.97 1495.29 601.39 1487.98 601.39"/><polygon class="cls-185" points="1480.66 601.39 1460.17 551.97 1467.49 551.97 1487.98 601.39 1480.66 601.39"/><polygon class="cls-133" points="1473.34 601.39 1452.86 551.97 1460.17 551.97 1480.66 601.39 1473.34 601.39"/><polygon class="cls-132" points="1466.03 601.39 1445.54 551.97 1452.86 551.97 1473.34 601.39 1466.03 601.39"/><polygon class="cls-130" points="1458.71 601.39 1438.23 551.97 1445.54 551.97 1466.03 601.39 1458.71 601.39"/><polygon class="cls-129" points="1451.4 601.39 1430.91 551.97 1438.23 551.97 1458.71 601.39 1451.4 601.39"/><polygon class="cls-128" points="1444.08 601.39 1423.6 551.97 1430.91 551.97 1451.4 601.39 1444.08 601.39"/><polygon class="cls-127" points="1436.77 601.39 1416.28 551.97 1423.6 551.97 1444.08 601.39 1436.77 601.39"/><polygon class="cls-125" points="1429.45 601.39 1408.96 551.97 1416.28 551.97 1436.77 601.39 1429.45 601.39"/><polygon class="cls-125" points="1422.13 601.39 1401.65 551.97 1408.96 551.97 1429.45 601.39 1422.13 601.39"/><polygon class="cls-181" points="1414.82 601.39 1394.33 551.97 1401.65 551.97 1422.13 601.39 1414.82 601.39"/><polygon class="cls-170" points="1407.5 601.39 1387.02 551.97 1394.33 551.97 1414.82 601.39 1407.5 601.39"/><polygon class="cls-171" points="1400.19 601.39 1379.7 551.97 1387.02 551.97 1407.5 601.39 1400.19 601.39"/><polygon class="cls-171" points="1392.87 601.39 1372.38 551.97 1379.7 551.97 1400.19 601.39 1392.87 601.39"/><polygon class="cls-186" points="1385.55 601.39 1365.07 551.97 1372.38 551.97 1392.87 601.39 1385.55 601.39"/><polygon class="cls-172" points="1378.24 601.39 1357.75 551.97 1365.07 551.97 1385.55 601.39 1378.24 601.39"/><polygon class="cls-173" points="1370.92 601.39 1350.44 551.97 1357.75 551.97 1378.24 601.39 1370.92 601.39"/><polygon class="cls-173" points="1363.61 601.39 1343.12 551.97 1350.44 551.97 1370.92 601.39 1363.61 601.39"/><polygon class="cls-180" points="1356.29 601.39 1335.8 551.97 1343.12 551.97 1363.61 601.39 1356.29 601.39"/><polygon class="cls-174" points="1348.97 601.39 1328.49 551.97 1335.8 551.97 1356.29 601.39 1348.97 601.39"/><polygon class="cls-174" points="1341.66 601.39 1321.34 552.37 1321.34 551.97 1328.49 551.97 1348.97 601.39 1341.66 601.39"/><polygon class="cls-174" points="1334.34 601.39 1321.34 570.02 1321.34 552.37 1341.66 601.39 1334.34 601.39"/><polygon class="cls-179" points="1327.03 601.39 1321.34 587.67 1321.34 570.02 1334.34 601.39 1327.03 601.39"/><polygon class="cls-175" points="1321.34 587.67 1327.03 601.39 1321.34 601.39 1321.34 587.67"/></g><path class="cls-187" d="M1559.6,499.12c-.24-1.33-.49-2.66-.73-4-6.23-34.34-37.54-56.49-71.94-50.88-33.23,5.42-56.41,38-50.71,71.25A62.45,62.45,0,0,0,1456.37,552h12.3a54.85,54.85,0,1,1,57.74,0h12.33a61.56,61.56,0,0,0,19.67-34c.67-3.35,1-6.77,1.51-10.16C1559.81,504.94,1559.71,502,1559.6,499.12Z"/><path class="cls-187" d="M1559.6,499.12c-.24-1.33-.49-2.66-.73-4-6.23-34.34-37.54-56.49-71.94-50.88-33.23,5.42-56.41,38-50.71,71.25A62.45,62.45,0,0,0,1456.37,552h12.3a54.85,54.85,0,1,1,57.74,0h12.33a61.56,61.56,0,0,0,19.67-34c.67-3.35,1-6.77,1.51-10.16C1559.81,504.94,1559.71,502,1559.6,499.12Z"/><path class="cls-187" d="M1559.6,499.12c-.24-1.33-.49-2.66-.73-4-6.23-34.34-37.54-56.49-71.94-50.88-33.23,5.42-56.41,38-50.71,71.25A62.45,62.45,0,0,0,1456.37,552h12.3a54.85,54.85,0,1,1,57.74,0h12.33a61.56,61.56,0,0,0,19.67-34c.67-3.35,1-6.77,1.51-10.16C1559.81,504.94,1559.71,502,1559.6,499.12Z"/><path class="cls-187" d="M1559.6,499.12c-.24-1.33-.49-2.66-.73-4-6.23-34.34-37.54-56.49-71.94-50.88-33.23,5.42-56.41,38-50.71,71.25A62.45,62.45,0,0,0,1456.37,552h12.3a54.85,54.85,0,1,1,57.74,0h12.33a61.56,61.56,0,0,0,19.67-34c.67-3.35,1-6.77,1.51-10.16C1559.81,504.94,1559.71,502,1559.6,499.12Z"/><path class="cls-187" d="M1559.6,499.12c-.24-1.33-.49-2.66-.73-4-6.23-34.34-37.54-56.49-71.94-50.88-33.23,5.42-56.41,38-50.71,71.25A62.45,62.45,0,0,0,1456.37,552h12.3a54.85,54.85,0,1,1,57.74,0h12.33a61.56,61.56,0,0,0,19.67-34c.67-3.35,1-6.77,1.51-10.16C1559.81,504.94,1559.71,502,1559.6,499.12Z"/><path class="cls-187" d="M1559.6,499.12c-.24-1.33-.49-2.66-.73-4-6.23-34.34-37.54-56.49-71.94-50.88-33.23,5.42-56.41,38-50.71,71.25A62.45,62.45,0,0,0,1456.37,552h12.3a54.85,54.85,0,1,1,57.74,0h12.33a61.56,61.56,0,0,0,19.67-34c.67-3.35,1-6.77,1.51-10.16C1559.81,504.94,1559.71,502,1559.6,499.12Z"/><path class="cls-187" d="M1559.6,499.12c-.24-1.33-.49-2.66-.73-4-6.23-34.34-37.54-56.49-71.94-50.88-33.23,5.42-56.41,38-50.71,71.25A62.45,62.45,0,0,0,1456.37,552h12.3a54.85,54.85,0,1,1,57.74,0h12.33a61.56,61.56,0,0,0,19.67-34c.67-3.35,1-6.77,1.51-10.16C1559.81,504.94,1559.71,502,1559.6,499.12Z"/><path class="cls-187" d="M1559.6,499.12c-.24-1.33-.49-2.66-.73-4-6.23-34.34-37.54-56.49-71.94-50.88-33.23,5.42-56.41,38-50.71,71.25A62.45,62.45,0,0,0,1456.37,552h12.3a54.85,54.85,0,1,1,57.74,0h12.33a61.56,61.56,0,0,0,19.67-34c.67-3.35,1-6.77,1.51-10.16C1559.81,504.94,1559.71,502,1559.6,499.12Z"/><path class="cls-187" d="M1492.21,424.34c-.27-4.5-.59-9-.45-13.53a14.21,14.21,0,0,0-7.92-13.73,77.26,77.26,0,0,0-14.69-6.26c-13.36-4-27.17-5.1-41-5.28-20.75-.27-41.28,1.52-61.26,7.49-7.28,2.17-14.32,5-20.25,9.92-3.92,3.28-6,7.31-5.6,12.64.46,6.44.52,12.91.76,19.62a8.3,8.3,0,0,0-1.39.59c-4.27,2.51-8.73,4.74-12.7,7.65a12.27,12.27,0,0,0-5,11.48c.38,4.65.56,9.33.5,14a13,13,0,0,0,5.8,11.34,91.24,91.24,0,0,0,8.94,5.09c.76.42,1.6.69,2.54,1.09-2.32,2.52-3.9,5.2-3.85,8.39.12,7.09.47,14.19.72,21.13-2.63,2.09-5.53,4.1-8.06,6.5a11.91,11.91,0,0,0-3.8,9.93c.33,4.66.59,9.33.49,14a14.21,14.21,0,0,0,.94,5.59h8.66c-2.26-2.11-2.66-4.56-2.09-9,.29.13.58.21.82.35a63.31,63.31,0,0,0,17.08,6.48q5.31,1.3,10.68,2.15h63.46q5.21-.75,10.4-1.78c2.87-.57,4.11-2.24,3.61-4.57-.45-2.14-2.27-3.1-5-2.58a221.33,221.33,0,0,1-62.61,2.78c-10.52-1-21-2.72-30.67-7.15a29.22,29.22,0,0,1-7-4.65c-2-1.8-2-3.83-.21-5.9a35.93,35.93,0,0,1,4.27-3.78c2.31-1.92,4.62-2.8,7.07-.11a8.32,8.32,0,0,0,2.35,1.4c7.55,3.94,15.71,5.92,24,7.34,18,3.06,36.09,3.1,54.23,1.68,3.48-.27,5.25-1.64,5.14-4s-2-3.6-5.71-3.32c-17.06,1.31-34.09,1.42-51-1.36-8.62-1.41-17.15-3.2-24.82-7.68-4.81-2.81-5.76-5-4.89-11,6.4,3.88,13.38,6,20.56,7.57,18.94,4,38.09,4.38,57.32,3,2.91-.21,4.49-1.61,4.37-3.91s-1.85-3.62-4.74-3.43a231.66,231.66,0,0,1-36.69-.09c-10.38-.95-20.69-2.37-30.42-6.3a49,49,0,0,1-9.74-5.81c-1.58-1.12-1.85-3.09-.77-5,1.46-2.57,4.14-4.36,6.06-4.09,9,1.26,18,2.86,27,3.64,15.77,1.37,31.5.21,47.15-2,2.74-.38,4.16-2,3.9-4.17s-2.09-3.37-5-3.07c-5.86.61-11.71,1.3-17.58,1.78a183.44,183.44,0,0,1-51.6-2.87c-7-1.43-13.88-3.21-19.94-7.18-4-2.6-4.93-5.45-3.72-10.15,2.19,1.05,4.33,2.24,6.59,3.15,11.84,4.79,24.32,6.53,36.93,7.42a223.31,223.31,0,0,0,58.5-3.37c3-.59,4.41-2.11,4-4.52-.4-2.26-2.23-3.16-5.18-2.77-9.09,1.19-18.17,2.74-27.3,3.39-17,1.2-34,.62-50.7-2.93-7-1.49-14-3.29-20-7.47-4.65-3.22-4.9-6.53-.35-9.84,3.42-2.49,7.41-4.2,11.15-6.24,2-1.09,3.89-1.29,5.82.42a15.1,15.1,0,0,0,3.81,2.08c11.59,5.29,24,7.12,36.5,8.21a227.25,227.25,0,0,0,50.61-1.37c11.23-1.53,22.31-3.79,32.88-8.06,5.34-2.15,10.45-4.73,14.48-9A12.9,12.9,0,0,0,1492.21,424.34ZM1350,409.89a27,27,0,0,1,6-4.49c9.24-5,19.34-7.55,29.61-9.28,23.39-4,46.89-4.74,70.34-.69,6.79,1.17,13.39,3.55,20,5.67a19.12,19.12,0,0,1,5.86,3.51c3.21,2.59,3.33,5.36.32,8.15a29.31,29.31,0,0,1-6,4.21,80,80,0,0,1-25.17,8.24c-11.38,1.88-22.86,3.08-34.3,4.58,0-.23,0-.45-.08-.68-15.65.5-31.22-.09-46.52-3.69a104,104,0,0,1-13.89-4.57,20.8,20.8,0,0,1-5.94-3.82C1347.67,414.76,1347.56,412.31,1350,409.89Zm129.93,22.2c-7.27,4.77-15.48,7.23-23.83,9.15-21.95,5-44.2,6-66.57,4.15-10.91-.92-21.68-2.74-31.85-7.09-.84-.36-1.65-.8-2.48-1.19-4.94-2.3-7.43-5.92-6.18-11.52,3,1.32,6.06,2.87,9.25,4,11.45,4.17,23.42,5.7,35.49,6.51a225,225,0,0,0,41.68-1c14.84-1.76,29.49-4.37,43-11.1,2-1,3.94-2.25,5.92-3.4C1485.66,426.49,1484.8,428.9,1479.94,432.09Z"/><path class="cls-124" d="M814.59,1201.46q0,18.27-11.19,30t-28.6,11.7a41.78,41.78,0,0,1-26.81-9.57q-14-11.08-14-29.2v-81.28H757V1169a38.37,38.37,0,0,1,9.82-4.1,41,41,0,0,1,10.33-1.36,35.06,35.06,0,0,1,27.32,12.29Q814.59,1187.12,814.59,1201.46Zm-40.13-15.88q-8.21,0-13.15,5.55a18.94,18.94,0,0,0-5,13.06q0,7.51,4.7,12t13.06,4.53a16.78,16.78,0,0,0,12.56-5.21,17.54,17.54,0,0,0-.09-24.68A16.32,16.32,0,0,0,774.46,1185.58Z"/><path class="cls-124" d="M951,1242.1H929v-5.29a33.8,33.8,0,0,1-10.4,5.29,39.57,39.57,0,0,1-11.25,1.54q-15.29,0-25.94-12.06a40.35,40.35,0,0,1-10.65-27.47q0-18.31,12.13-29.78a38.06,38.06,0,0,1,27.32-10.78,40.2,40.2,0,0,1,29,12Q951,1187,951,1201.71Zm-22-36.62a18.12,18.12,0,0,0-5.3-12.7q-5.3-5.67-12-5.66-8.55,0-13.75,5.23a17.66,17.66,0,0,0-5.21,13q0,7.89,5,12.61a17.24,17.24,0,0,0,12.21,4.72,19.31,19.31,0,0,0,13.15-5.15Q929,1212.34,929,1205.48Z"/><path class="cls-124" d="M1040.35,1242.1H1017V1123.42h23.4Z"/><path class="cls-124" d="M1180.21,1242.1h-22v-5.29a33.75,33.75,0,0,1-10.39,5.29,39.62,39.62,0,0,1-11.25,1.54q-15.3,0-25.94-12.06a40.35,40.35,0,0,1-10.65-27.47q0-18.31,12.12-29.78a38.08,38.08,0,0,1,27.33-10.78,40.22,40.22,0,0,1,29,12q11.77,11.46,11.78,26.18Zm-22-36.62a18.11,18.11,0,0,0-5.29-12.7q-5.3-5.67-12-5.66-8.54,0-13.74,5.23a17.62,17.62,0,0,0-5.21,13q0,7.89,5,12.61a17.21,17.21,0,0,0,12.21,4.72,19.33,19.33,0,0,0,13.15-5.15Q1158.17,1212.34,1158.18,1205.48Z"/><path class="cls-124" d="M1312.22,1242.1h-22v-45.42q0-4.1-4.44-8.54a12,12,0,0,0-8.71-3.76,10,10,0,0,0-7.94,4.1,13.39,13.39,0,0,0-3.33,8.54v45.08h-21.69v-49.35q0-9.9,9.73-19.13,10.59-10.06,24.25-10.07,13.5,0,24.25,10.07,9.9,9.41,9.91,18.79Z"/><path class="cls-124" d="M1423.9,1242.1l-5.63.17q-21.35,0-33.47-11.61-11.1-10.76-11.1-27.83,0-16.9,11.52-27.93t31.17-11l7.51.51v20.67l-5.12-.52q-11.27,0-16.91,6.32a18,18,0,0,0-4.61,12.47q0,9.57,8.37,13.66,6.31,3.07,18.27,3.07Z"/><path class="cls-124" d="M1548.23,1210.68H1504a22.29,22.29,0,0,0,6.91,10.16,16,16,0,0,0,10.33,3.84q11.44,0,14.35-6.66h24.76a40,40,0,0,1-37.06,25.28q-17.58,0-29-11.08t-11.44-29q0-17.2,11.61-28.45t30.23-11.25q12.81,0,24.76,9.7,12.81,10.38,12.81,22.8,0,9-3.93,12.25Q1555.39,1210.69,1548.23,1210.68Zm-5.3-14a28.77,28.77,0,0,0-8.62-10.12,20,20,0,0,0-23.65.34,18.52,18.52,0,0,0-7.35,9.78Z"/><path class="cls-187" d="M1474.84,499.9c0,3,0,5.57,0,8.18,0,2,.74,2.61,2.77,2.55,5-.16,10-.06,15.06,0a2.77,2.77,0,0,1,3.07,2.79c.08,1.82-1.06,2.81-2.84,3a18.07,18.07,0,0,1-2.08.07c-3.71,0-7.42,0-11.12,0-.74,0-1.48.07-2.55.12,3.84,7.92,9.38,13.34,17.93,15s15.74-1.52,21.54-7.92c.62-.68,1.14-1.46,1.78-2.13,1.25-1.29,2.7-1.54,4.11-.33a2.68,2.68,0,0,1,.45,3.94c-6.41,8.64-14.84,13.52-25.79,12.64-12.35-1-20.51-8-25.45-19.07-.74-1.65-1.54-2.47-3.41-2.24a22.24,22.24,0,0,1-4.16,0c-1.83-.12-3.16-1-3.11-3s1.32-2.83,3.2-2.86c1.53,0,3,0,4.59,0v-10.7c-1.53,0-3,.08-4.56,0-2.17-.14-3.38-1.33-3.24-3.13.16-2,1.46-2.77,3.32-2.78s3.85,0,5.16,0c2.51-4.18,4.45-8.25,7.13-11.76,11.71-15.33,35.18-14.57,46.11,1.33,1.07,1.56,1.2,3-.27,4.32-1.3,1.15-3.16.88-4.44-.77A24.94,24.94,0,0,0,1505.5,478c-13.29-4.09-25.66,5.38-28.71,16h13.66c.77,0,1.55,0,2.32,0a2.92,2.92,0,0,1,.22,5.83,18.06,18.06,0,0,1-2.55.08Z"/><path class="cls-188" d="M1474.84,499.9c0,3,0,5.57,0,8.18,0,2,.74,2.61,2.77,2.55,5-.16,10-.06,15.06,0a2.77,2.77,0,0,1,3.07,2.79c.08,1.82-1.06,2.81-2.84,3a18.07,18.07,0,0,1-2.08.07c-3.71,0-7.42,0-11.12,0-.74,0-1.48.07-2.55.12,3.84,7.92,9.38,13.34,17.93,15s15.74-1.52,21.54-7.92c.62-.68,1.14-1.46,1.78-2.13,1.25-1.29,2.7-1.54,4.11-.33a2.68,2.68,0,0,1,.45,3.94c-6.41,8.64-14.84,13.52-25.79,12.64-12.35-1-20.51-8-25.45-19.07-.74-1.65-1.54-2.47-3.41-2.24a22.24,22.24,0,0,1-4.16,0c-1.83-.12-3.16-1-3.11-3s1.32-2.83,3.2-2.86c1.53,0,3,0,4.59,0v-10.7c-1.53,0-3,.08-4.56,0-2.17-.14-3.38-1.33-3.24-3.13.16-2,1.46-2.77,3.32-2.78s3.85,0,5.16,0c2.51-4.18,4.45-8.25,7.13-11.76,11.71-15.33,35.18-14.57,46.11,1.33,1.07,1.56,1.2,3-.27,4.32-1.3,1.15-3.16.88-4.44-.77A24.94,24.94,0,0,0,1505.5,478c-13.29-4.09-25.66,5.38-28.71,16h13.66c.77,0,1.55,0,2.32,0a2.92,2.92,0,0,1,.22,5.83,18.06,18.06,0,0,1-2.55.08Z"/><path class="cls-188" d="M1474.84,499.9c0,3,0,5.57,0,8.18,0,2,.74,2.61,2.77,2.55,5-.16,10-.06,15.06,0a2.77,2.77,0,0,1,3.07,2.79c.08,1.82-1.06,2.81-2.84,3a18.07,18.07,0,0,1-2.08.07c-3.71,0-7.42,0-11.12,0-.74,0-1.48.07-2.55.12,3.84,7.92,9.38,13.34,17.93,15s15.74-1.52,21.54-7.92c.62-.68,1.14-1.46,1.78-2.13,1.25-1.29,2.7-1.54,4.11-.33a2.68,2.68,0,0,1,.45,3.94c-6.41,8.64-14.84,13.52-25.79,12.64-12.35-1-20.51-8-25.45-19.07-.74-1.65-1.54-2.47-3.41-2.24a22.24,22.24,0,0,1-4.16,0c-1.83-.12-3.16-1-3.11-3s1.32-2.83,3.2-2.86c1.53,0,3,0,4.59,0v-10.7c-1.53,0-3,.08-4.56,0-2.17-.14-3.38-1.33-3.24-3.13.16-2,1.46-2.77,3.32-2.78s3.85,0,5.16,0c2.51-4.18,4.45-8.25,7.13-11.76,11.71-15.33,35.18-14.57,46.11,1.33,1.07,1.56,1.2,3-.27,4.32-1.3,1.15-3.16.88-4.44-.77A24.94,24.94,0,0,0,1505.5,478c-13.29-4.09-25.66,5.38-28.71,16h13.66c.77,0,1.55,0,2.32,0a2.92,2.92,0,0,1,.22,5.83,18.06,18.06,0,0,1-2.55.08Z"/><path class="cls-187" d="M1474.84,499.9c0,3,0,5.57,0,8.18,0,2,.74,2.61,2.77,2.55,5-.16,10-.06,15.06,0a2.77,2.77,0,0,1,3.07,2.79c.08,1.82-1.06,2.81-2.84,3a18.07,18.07,0,0,1-2.08.07c-3.71,0-7.42,0-11.12,0-.74,0-1.48.07-2.55.12,3.84,7.92,9.38,13.34,17.93,15s15.74-1.52,21.54-7.92c.62-.68,1.14-1.46,1.78-2.13,1.25-1.29,2.7-1.54,4.11-.33a2.68,2.68,0,0,1,.45,3.94c-6.41,8.64-14.84,13.52-25.79,12.64-12.35-1-20.51-8-25.45-19.07-.74-1.65-1.54-2.47-3.41-2.24a22.24,22.24,0,0,1-4.16,0c-1.83-.12-3.16-1-3.11-3s1.32-2.83,3.2-2.86c1.53,0,3,0,4.59,0v-10.7c-1.53,0-3,.08-4.56,0-2.17-.14-3.38-1.33-3.24-3.13.16-2,1.46-2.77,3.32-2.78s3.85,0,5.16,0c2.51-4.18,4.45-8.25,7.13-11.76,11.71-15.33,35.18-14.57,46.11,1.33,1.07,1.56,1.2,3-.27,4.32-1.3,1.15-3.16.88-4.44-.77A24.94,24.94,0,0,0,1505.5,478c-13.29-4.09-25.66,5.38-28.71,16h13.66c.77,0,1.55,0,2.32,0a2.92,2.92,0,0,1,.22,5.83,18.06,18.06,0,0,1-2.55.08Z"/><path class="cls-187" d="M1474.84,499.9c0,3,0,5.57,0,8.18,0,2,.74,2.61,2.77,2.55,5-.16,10-.06,15.06,0a2.77,2.77,0,0,1,3.07,2.79c.08,1.82-1.06,2.81-2.84,3a18.07,18.07,0,0,1-2.08.07c-3.71,0-7.42,0-11.12,0-.74,0-1.48.07-2.55.12,3.84,7.92,9.38,13.34,17.93,15s15.74-1.52,21.54-7.92c.62-.68,1.14-1.46,1.78-2.13,1.25-1.29,2.7-1.54,4.11-.33a2.68,2.68,0,0,1,.45,3.94c-6.41,8.64-14.84,13.52-25.79,12.64-12.35-1-20.51-8-25.45-19.07-.74-1.65-1.54-2.47-3.41-2.24a22.24,22.24,0,0,1-4.16,0c-1.83-.12-3.16-1-3.11-3s1.32-2.83,3.2-2.86c1.53,0,3,0,4.59,0v-10.7c-1.53,0-3,.08-4.56,0-2.17-.14-3.38-1.33-3.24-3.13.16-2,1.46-2.77,3.32-2.78s3.85,0,5.16,0c2.51-4.18,4.45-8.25,7.13-11.76,11.71-15.33,35.18-14.57,46.11,1.33,1.07,1.56,1.2,3-.27,4.32-1.3,1.15-3.16.88-4.44-.77A24.94,24.94,0,0,0,1505.5,478c-13.29-4.09-25.66,5.38-28.71,16h13.66c.77,0,1.55,0,2.32,0a2.92,2.92,0,0,1,.22,5.83,18.06,18.06,0,0,1-2.55.08Z"/><path class="cls-187" d="M1474.84,499.9c0,3,0,5.57,0,8.18,0,2,.74,2.61,2.77,2.55,5-.16,10-.06,15.06,0a2.77,2.77,0,0,1,3.07,2.79c.08,1.82-1.06,2.81-2.84,3a18.07,18.07,0,0,1-2.08.07c-3.71,0-7.42,0-11.12,0-.74,0-1.48.07-2.55.12,3.84,7.92,9.38,13.34,17.93,15s15.74-1.52,21.54-7.92c.62-.68,1.14-1.46,1.78-2.13,1.25-1.29,2.7-1.54,4.11-.33a2.68,2.68,0,0,1,.45,3.94c-6.41,8.64-14.84,13.52-25.79,12.64-12.35-1-20.51-8-25.45-19.07-.74-1.65-1.54-2.47-3.41-2.24a22.24,22.24,0,0,1-4.16,0c-1.83-.12-3.16-1-3.11-3s1.32-2.83,3.2-2.86c1.53,0,3,0,4.59,0v-10.7c-1.53,0-3,.08-4.56,0-2.17-.14-3.38-1.33-3.24-3.13.16-2,1.46-2.77,3.32-2.78s3.85,0,5.16,0c2.51-4.18,4.45-8.25,7.13-11.76,11.71-15.33,35.18-14.57,46.11,1.33,1.07,1.56,1.2,3-.27,4.32-1.3,1.15-3.16.88-4.44-.77A24.94,24.94,0,0,0,1505.5,478c-13.29-4.09-25.66,5.38-28.71,16h13.66c.77,0,1.55,0,2.32,0a2.92,2.92,0,0,1,.22,5.83,18.06,18.06,0,0,1-2.55.08Z"/><path class="cls-187" d="M1474.84,499.9c0,3,0,5.57,0,8.18,0,2,.74,2.61,2.77,2.55,5-.16,10-.06,15.06,0a2.77,2.77,0,0,1,3.07,2.79c.08,1.82-1.06,2.81-2.84,3a18.07,18.07,0,0,1-2.08.07c-3.71,0-7.42,0-11.12,0-.74,0-1.48.07-2.55.12,3.84,7.92,9.38,13.34,17.93,15s15.74-1.52,21.54-7.92c.62-.68,1.14-1.46,1.78-2.13,1.25-1.29,2.7-1.54,4.11-.33a2.68,2.68,0,0,1,.45,3.94c-6.41,8.64-14.84,13.52-25.79,12.64-12.35-1-20.51-8-25.45-19.07-.74-1.65-1.54-2.47-3.41-2.24a22.24,22.24,0,0,1-4.16,0c-1.83-.12-3.16-1-3.11-3s1.32-2.83,3.2-2.86c1.53,0,3,0,4.59,0v-10.7c-1.53,0-3,.08-4.56,0-2.17-.14-3.38-1.33-3.24-3.13.16-2,1.46-2.77,3.32-2.78s3.85,0,5.16,0c2.51-4.18,4.45-8.25,7.13-11.76,11.71-15.33,35.18-14.57,46.11,1.33,1.07,1.56,1.2,3-.27,4.32-1.3,1.15-3.16.88-4.44-.77A24.94,24.94,0,0,0,1505.5,478c-13.29-4.09-25.66,5.38-28.71,16h13.66c.77,0,1.55,0,2.32,0a2.92,2.92,0,0,1,.22,5.83,18.06,18.06,0,0,1-2.55.08Z"/></svg>