<svg width="18" height="18" viewBox="0 0 18 18" fill="none" xmlns="http://www.w3.org/2000/svg">
<path d="M15.75 5.04785C15.735 5.04785 15.7125 5.04785 15.69 5.04785C11.7225 4.65035 7.7625 4.50035 3.84 4.89785L2.31 5.04785C1.995 5.07785 1.7175 4.85285 1.6875 4.53785C1.6575 4.22285 1.8825 3.95285 2.19 3.92285L3.72 3.77285C7.71 3.36785 11.7525 3.52535 15.8025 3.92285C16.11 3.95285 16.335 4.23035 16.305 4.53785C16.2825 4.83035 16.035 5.04785 15.75 5.04785Z" fill="#C1121F"/>
<path d="M6.37501 4.29C6.34501 4.29 6.31501 4.29 6.27751 4.2825C5.97751 4.23 5.76751 3.9375 5.82001 3.6375L5.98501 2.655C6.10501 1.935 6.27001 0.9375 8.01751 0.9375H9.98251C11.7375 0.9375 11.9025 1.9725 12.015 2.6625L12.18 3.6375C12.2325 3.945 12.0225 4.2375 11.7225 4.2825C11.415 4.335 11.1225 4.125 11.0775 3.825L10.9125 2.85C10.8075 2.1975 10.785 2.07 9.99001 2.07H8.02501C7.23001 2.07 7.21501 2.175 7.10251 2.8425L6.93001 3.8175C6.88501 4.095 6.64501 4.29 6.37501 4.29Z" fill="#C1121F"/>
<path d="M11.4075 17.0622H6.59255C3.97505 17.0622 3.87005 15.6147 3.78755 14.4447L3.30005 6.89219C3.27755 6.58469 3.51755 6.31469 3.82505 6.29219C4.14005 6.27719 4.40255 6.50969 4.42505 6.81719L4.91255 14.3697C4.99505 15.5097 5.02505 15.9372 6.59255 15.9372H11.4075C12.9825 15.9372 13.0125 15.5097 13.0875 14.3697L13.575 6.81719C13.5975 6.50969 13.8675 6.27719 14.175 6.29219C14.4825 6.31469 14.7225 6.57719 14.7 6.89219L14.2125 14.4447C14.13 15.6147 14.025 17.0622 11.4075 17.0622Z" fill="#C1121F"/>
<path d="M10.245 12.9375H7.7475C7.44 12.9375 7.185 12.6825 7.185 12.375C7.185 12.0675 7.44 11.8125 7.7475 11.8125H10.245C10.5525 11.8125 10.8075 12.0675 10.8075 12.375C10.8075 12.6825 10.5525 12.9375 10.245 12.9375Z" fill="#C1121F"/>
<path d="M10.875 9.9375H7.125C6.8175 9.9375 6.5625 9.6825 6.5625 9.375C6.5625 9.0675 6.8175 8.8125 7.125 8.8125H10.875C11.1825 8.8125 11.4375 9.0675 11.4375 9.375C11.4375 9.6825 11.1825 9.9375 10.875 9.9375Z" fill="#C1121F"/>
</svg>
